<svg width="304" height="321" viewBox="0 0 304 321" fill="none" xmlns="http://www.w3.org/2000/svg">
<path d="M275.776 0H29.1993C13.6367 0 0.975464 12.6612 0.975464 28.2239V249.241C0.975464 264.803 13.6367 277.464 29.1993 277.464H118.68L144.66 316.435C148.373 322.003 156.589 322.025 160.315 316.435L186.296 277.464H275.776C291.339 277.464 304 264.803 304 249.241V28.2239C303.999 12.6612 291.339 0 275.776 0ZM285.183 249.241C285.183 254.428 280.963 258.648 275.776 258.648H181.261C178.115 258.648 175.178 260.22 173.433 262.838L152.488 294.256L131.542 262.838C129.798 260.221 126.86 258.648 123.715 258.648H29.1993C24.0118 258.648 19.7914 254.428 19.7914 249.241V28.2239C19.7914 23.0363 24.0118 18.8159 29.1993 18.8159H275.776C280.964 18.8159 285.184 23.0363 285.184 28.2239V249.241H285.183Z" fill="#F7F7F7"/>
<path d="M233.893 49.7917L77.3123 102.73C69.0026 105.54 68.7479 117.252 76.9322 120.417L147.79 147.821L175.193 218.678C178.364 226.877 190.063 226.63 192.88 218.298L245.819 61.7172C248.325 54.2956 241.208 47.3256 233.893 49.7917ZM152.743 129.563L107.943 112.237L201.802 80.5037L152.743 129.563ZM166.047 142.868L215.107 93.809L183.373 187.668L166.047 142.868Z" fill="#F7F7F7"/>
<path d="M97.9596 156.001C94.2867 152.327 88.3296 152.327 84.6548 156.001L59.3242 181.331C55.6501 185.004 55.6501 190.961 59.3242 194.635C62.9977 198.31 68.9548 198.31 72.6289 194.635L97.9596 169.305C101.634 165.631 101.634 159.674 97.9596 156.001Z" fill="#F7F7F7"/>
<path d="M136.922 171.993C140.596 168.319 140.596 162.363 136.922 158.688C133.249 155.014 127.292 155.014 123.617 158.688L87.3423 194.964C83.6681 198.638 83.6681 204.594 87.3423 208.268C91.0158 211.943 96.9729 211.943 100.647 208.268L136.922 171.993Z" fill="#F7F7F7"/>
<path d="M126.306 197.651L100.975 222.981C97.3011 226.655 97.3011 232.612 100.975 236.286C104.649 239.96 110.606 239.96 114.28 236.286L139.611 210.956C143.285 207.282 143.285 201.325 139.611 197.651C135.937 193.977 129.98 193.976 126.306 197.651Z" fill="#F7F7F7"/>
</svg>
