<svg width="60" height="60" viewBox="0 0 60 60" fill="none" xmlns="http://www.w3.org/2000/svg">
<path d="M48.023 3H43V15H59V5H51L48.023 3Z" fill="#FEB104"/>
<path d="M48.023 24H43V36H59V26H51L48.023 24Z" fill="#FEB104"/>
<path d="M48.023 45H43V57H59V47H51L48.023 45Z" fill="#FEB104"/>
<path d="M34 32C35.1046 32 36 31.1046 36 30C36 28.8954 35.1046 28 34 28C32.8954 28 32 28.8954 32 30C32 31.1046 32.8954 32 34 32Z" fill="#FFDA44"/>
<path d="M60 16H42V2H48.327L51.305 4H60V16ZM44 14H58V6H50.7L47.718 4H44V14Z" fill="#231F20"/>
<path d="M60 37H42V23H48.327L51.305 25H60V37ZM44 35H58V27H50.7L47.723 25H44V35Z" fill="#231F20"/>
<path d="M60 58H42V44H48.327L51.305 46H60V58ZM44 56H58V48H50.7L47.723 46H44V56Z" fill="#231F20"/>
<path d="M40 10V8H33V27.184C32.1531 27.4865 31.4865 28.1531 31.184 29H28V31H31.184C31.4865 31.8469 32.1531 32.5135 33 32.816V52H40V50H35V32.816C35.8469 32.5135 36.5135 31.8469 36.816 31H40V29H36.816C36.5135 28.1531 35.8469 27.4865 35 27.184V10H40ZM34 31C33.4478 31 33 30.5522 33 30C33 29.4478 33.4478 29 34 29C34.5522 29 35 29.4478 35 30C35 30.5522 34.5522 31 34 31Z" fill="#231F20"/>
<path d="M13 13C6.54 13 0 14.718 0 18V42C0 45.282 6.54 47 13 47C19.46 47 26 45.282 26 42V18C26 14.718 19.46 13 13 13ZM24 42C24 43.019 20.117 45 13 45C5.883 45 2 43.019 2 42V36.8C2.05 36.83 2.112 36.854 2.163 36.884C2.374 37.004 2.597 37.118 2.833 37.228C2.915 37.267 2.993 37.307 3.079 37.344C3.83262 37.6653 4.61038 37.9266 5.405 38.126L5.435 38.134C7.91187 38.7301 10.4525 39.021 13 39C15.5478 39.0194 18.0883 38.7269 20.565 38.129L20.595 38.121C21.3896 37.9216 22.1674 37.6603 22.921 37.339C23.007 37.302 23.085 37.262 23.167 37.223C23.403 37.113 23.626 36.999 23.837 36.879C23.888 36.849 23.95 36.825 24 36.795V42ZM13 37C5.883 37 2 35.019 2 34V28.8C2.05 28.83 2.112 28.854 2.163 28.884C2.374 29.004 2.597 29.118 2.833 29.228C2.915 29.267 2.993 29.307 3.079 29.344C3.83262 29.6653 4.61038 29.9266 5.405 30.126L5.435 30.134C7.91187 30.7301 10.4525 31.021 13 31C15.5478 31.0194 18.0883 30.7269 20.565 30.129L20.595 30.121C21.3896 29.9216 22.1674 29.6603 22.921 29.339C23.007 29.302 23.085 29.262 23.167 29.223C23.403 29.113 23.626 28.999 23.837 28.879C23.888 28.849 23.95 28.825 24 28.795V34C24 35.019 20.117 37 13 37ZM13 29C5.883 29 2 27.019 2 26V20.8C2.05 20.83 2.112 20.854 2.163 20.884C2.374 21.004 2.597 21.118 2.833 21.228C2.915 21.267 2.993 21.307 3.079 21.344C3.83262 21.6652 4.61038 21.9266 5.405 22.126L5.435 22.134C7.91187 22.7301 10.4525 23.021 13 23C15.5478 23.0194 18.0883 22.7269 20.565 22.129L20.595 22.121C21.3896 21.9216 22.1674 21.6603 22.921 21.339C23.007 21.302 23.085 21.262 23.167 21.223C23.403 21.113 23.626 20.999 23.837 20.879C23.888 20.849 23.95 20.825 24 20.795V26C24 27.019 20.117 29 13 29ZM13 21C5.883 21 2 19.019 2 18C2 16.981 5.883 15 13 15C20.117 15 24 16.981 24 18C24 19.019 20.117 21 13 21Z" fill="#231F20"/>
<path d="M46 9H48V11H46V9Z" fill="#231F20"/>
<path d="M50 9H52V11H50V9Z" fill="#231F20"/>
<path d="M54 9H56V11H54V9Z" fill="#231F20"/>
<path d="M46 30H48V32H46V30Z" fill="#231F20"/>
<path d="M50 30H52V32H50V30Z" fill="#231F20"/>
<path d="M54 30H56V32H54V30Z" fill="#231F20"/>
<path d="M46 51H48V53H46V51Z" fill="#231F20"/>
<path d="M50 51H52V53H50V51Z" fill="#231F20"/>
<path d="M54 51H56V53H54V51Z" fill="#231F20"/>
</svg>
