<svg width="60" height="60" viewBox="0 0 60 60" fill="none" xmlns="http://www.w3.org/2000/svg">
<mask id="path-1-inside-1" fill="white">
<path d="M49 25H53V39H49V25Z"/>
</mask>
<path d="M49 25H53V39H49V25Z" fill="#FF7956"/>
<path d="M49 25V17H41V25H49ZM53 25H61V17H53V25ZM53 39V47H61V39H53ZM49 39H41V47H49V39ZM49 33H53V17H49V33ZM45 25V39H61V25H45ZM53 31H49V47H53V31ZM57 39V25H41V39H57Z" fill="#FEB104" mask="url(#path-1-inside-1)"/>
<mask id="path-3-inside-2" fill="white">
<path d="M42 27H46V39H42V27Z"/>
</mask>
<path d="M42 27H46V39H42V27Z" fill="#FFDE55"/>
<path d="M42 27V19H34V27H42ZM46 27H54V19H46V27ZM46 39V47H54V39H46ZM42 39H34V47H42V39ZM42 35H46V19H42V35ZM38 27V39H54V27H38ZM46 31H42V47H46V31ZM50 39V27H34V39H50Z" fill="#FEB104" mask="url(#path-3-inside-2)"/>
<mask id="path-5-inside-3" fill="white">
<path d="M36.75 6.1875C37.8476 7.64685 38.4399 9.42398 38.4375 11.25C38.4377 11.5634 38.4189 11.8764 38.3812 12.1875H30V2.8125C31.31 2.81192 32.6021 3.11664 33.7738 3.70248C34.9454 4.28832 35.9645 5.13916 36.75 6.1875Z"/>
</mask>
<path d="M36.75 6.1875C37.8476 7.64685 38.4399 9.42398 38.4375 11.25C38.4377 11.5634 38.4189 11.8764 38.3812 12.1875H30V2.8125C31.31 2.81192 32.6021 3.11664 33.7738 3.70248C34.9454 4.28832 35.9645 5.13916 36.75 6.1875Z" fill="#FF7956"/>
<path d="M38.4375 11.25L30.4375 11.2393L30.4375 11.2476L30.4375 11.2559L38.4375 11.25ZM38.3812 12.1875V20.1875H45.4703L46.3232 13.1499L38.3812 12.1875ZM30 12.1875H22V20.1875H30V12.1875ZM30 2.8125L29.9964 -5.1875L22 -5.18394V2.8125H30ZM30.3564 10.9961C30.4092 11.0662 30.4376 11.1516 30.4375 11.2393L46.4375 11.2607C46.4423 7.6964 45.286 4.22752 43.1436 1.37894L30.3564 10.9961ZM30.4375 11.2559C30.4375 11.2456 30.4381 11.2353 30.4393 11.2251L46.3232 13.1499C46.3998 12.5176 46.438 11.8811 46.4375 11.2441L30.4375 11.2559ZM38.3812 4.1875H30V20.1875H38.3812V4.1875ZM38 12.1875V2.8125H22V12.1875H38ZM30.0036 10.8125C30.0704 10.8125 30.1363 10.828 30.1961 10.8579L37.3515 -3.45294C35.0679 -4.59474 32.5496 -5.18863 29.9964 -5.1875L30.0036 10.8125ZM30.1961 10.8579C30.2558 10.8878 30.3078 10.9312 30.3479 10.9847L43.1521 1.39035C41.6212 -0.652852 39.6351 -2.31114 37.3515 -3.45294L30.1961 10.8579Z" fill="#FEB104" mask="url(#path-5-inside-3)"/>
<mask id="path-7-inside-4" fill="white">
<path d="M11.25 22.5H15.9375C15.9375 23.4271 15.6626 24.3334 15.1475 25.1042C14.6324 25.8751 13.9004 26.4759 13.0438 26.8307C12.1873 27.1855 11.2448 27.2783 10.3355 27.0974C9.42623 26.9166 8.591 26.4701 7.93544 25.8146C7.27988 25.159 6.83344 24.3238 6.65257 23.4145C6.4717 22.5052 6.56453 21.5627 6.91932 20.7062C7.2741 19.8496 7.87491 19.1176 8.64577 18.6025C9.41662 18.0874 10.3229 17.8125 11.25 17.8125V22.5Z"/>
</mask>
<path d="M11.25 22.5H15.9375C15.9375 23.4271 15.6626 24.3334 15.1475 25.1042C14.6324 25.8751 13.9004 26.4759 13.0438 26.8307C12.1873 27.1855 11.2448 27.2783 10.3355 27.0974C9.42623 26.9166 8.591 26.4701 7.93544 25.8146C7.27988 25.159 6.83344 24.3238 6.65257 23.4145C6.4717 22.5052 6.56453 21.5627 6.91932 20.7062C7.2741 19.8496 7.87491 19.1176 8.64577 18.6025C9.41662 18.0874 10.3229 17.8125 11.25 17.8125V22.5Z" fill="#FFDE55"/>
<path d="M11.25 22.5H3.25V30.5H11.25V22.5ZM15.9375 22.5H23.9375V14.5H15.9375V22.5ZM11.25 17.8125H19.25V9.8125H11.25V17.8125ZM11.25 30.5H15.9375V14.5H11.25V30.5ZM7.9375 22.5C7.9375 21.8448 8.13178 21.2044 8.49576 20.6597L21.7993 29.5488C23.1934 27.4623 23.9375 25.0093 23.9375 22.5H7.9375ZM8.49576 20.6597C8.85974 20.1149 9.37708 19.6904 9.98236 19.4396L16.1053 34.2217C18.4236 33.2614 20.4052 31.6352 21.7993 29.5488L8.49576 20.6597ZM9.98236 19.4396C10.5876 19.1889 11.2537 19.1233 11.8962 19.2511L8.77479 34.9437C11.2359 35.4333 13.787 35.182 16.1053 34.2217L9.98236 19.4396ZM11.8962 19.2511C12.5388 19.379 13.129 19.6944 13.5923 20.1577L2.27859 31.4714C4.05296 33.2458 6.31366 34.4542 8.77479 34.9437L11.8962 19.2511ZM13.5923 20.1577C14.0556 20.621 14.371 21.2112 14.4989 21.8538L-1.19371 24.9752C-0.70416 27.4363 0.504209 29.697 2.27859 31.4714L13.5923 20.1577ZM14.4989 21.8538C14.6267 22.4963 14.5611 23.1624 14.3104 23.7676L-0.471719 17.6447C-1.43201 19.963 -1.68326 22.5141 -1.19371 24.9752L14.4989 21.8538ZM14.3104 23.7676C14.0596 24.3729 13.6351 24.8903 13.0903 25.2542L4.20121 11.9507C2.11476 13.3448 0.488569 15.3264 -0.471719 17.6447L14.3104 23.7676ZM13.0903 25.2542C12.5456 25.6182 11.9051 25.8125 11.25 25.8125V9.8125C8.74066 9.8125 6.28766 10.5566 4.20121 11.9507L13.0903 25.2542ZM3.25 17.8125V22.5H19.25V17.8125H3.25Z" fill="#FEB104" mask="url(#path-7-inside-4)"/>
<mask id="path-9-inside-5" fill="white">
<path d="M35 31H39V39H35V31Z"/>
</mask>
<path d="M35 31H39V39H35V31Z" fill="#00D7DF"/>
<path d="M35 31V23H27V31H35ZM39 31H47V23H39V31ZM39 39V47H47V39H39ZM35 39H27V47H35V39ZM35 39H39V23H35V39ZM31 31V39H47V31H31ZM39 31H35V47H39V31ZM43 39V31H27V39H43Z" fill="#FEB104" mask="url(#path-9-inside-5)"/>
<path d="M55.3125 13.125H39.1875C39.3116 12.5077 39.3744 11.8797 39.375 11.25C39.3722 9.54362 38.9021 7.87059 38.0156 6.41251L41.5594 3.75001H48.75V1.87501H41.25C41.047 1.87391 40.8493 1.93982 40.6875 2.06251L36.8906 4.91251C36.016 3.95546 34.9516 3.1911 33.7652 2.66814C32.5788 2.14519 31.2965 1.8751 30 1.8751C28.7035 1.8751 27.4212 2.14519 26.2348 2.66814C25.0484 3.1911 23.984 3.95546 23.1094 4.91251L19.3125 2.06251C19.1507 1.93982 18.953 1.87391 18.75 1.87501H11.25V3.75001H18.4406L21.9844 6.41251C21.0979 7.87059 20.6278 9.54362 20.625 11.25C20.6256 11.8797 20.6884 12.5077 20.8125 13.125H4.6875C3.94226 13.1272 3.22819 13.4243 2.70122 13.9512C2.17426 14.4782 1.87723 15.1923 1.875 15.9375V45.9375C1.87723 46.6828 2.17426 47.3968 2.70122 47.9238C3.22819 48.4508 3.94226 48.7478 4.6875 48.75H23.4375V52.5H20.625C20.4796 52.501 20.3364 52.5353 20.2064 52.6003C20.0764 52.6654 19.963 52.7593 19.875 52.875L17.0625 56.625C16.958 56.7643 16.8944 56.9299 16.8788 57.1033C16.8632 57.2767 16.8961 57.451 16.974 57.6068C17.0518 57.7625 17.1715 57.8935 17.3196 57.985C17.4677 58.0765 17.6384 58.125 17.8125 58.125H42.1875C42.3616 58.125 42.5323 58.0765 42.6804 57.985C42.8285 57.8935 42.9482 57.7625 43.026 57.6068C43.1039 57.451 43.1368 57.2767 43.1212 57.1033C43.1056 56.9299 43.042 56.7643 42.9375 56.625L40.125 52.875C40.037 52.7593 39.9236 52.6654 39.7936 52.6003C39.6636 52.5353 39.5204 52.501 39.375 52.5H36.5625V48.75H55.3125C56.0577 48.7478 56.7718 48.4508 57.2988 47.9238C57.8257 47.3968 58.1228 46.6828 58.125 45.9375V15.9375C58.1228 15.1923 57.8257 14.4782 57.2988 13.9512C56.7718 13.4243 56.0577 13.1272 55.3125 13.125ZM30.9375 3.81564C32.6286 4.02829 34.1964 4.81218 35.3813 6.03751L33.1875 7.68751L34.3125 9.18751L36.5062 7.53751C37.1566 8.66678 37.4992 9.94689 37.5 11.25H30.9375V3.81564ZM23.4937 7.53751L25.6875 9.18751L26.8125 7.68751L24.6187 6.03751C25.8036 4.81218 27.3714 4.02829 29.0625 3.81564V12.1875C29.0625 12.4362 29.1613 12.6746 29.3371 12.8504C29.5129 13.0262 29.7514 13.125 30 13.125H37.2563C36.9913 14.1614 36.5075 15.1291 35.8375 15.963C35.1675 16.7969 34.3267 17.4778 33.3717 17.9598C32.4168 18.4418 31.3696 18.7138 30.3008 18.7575C29.232 18.8012 28.1661 18.6156 27.175 18.2132C26.1838 17.8108 25.2903 17.2009 24.5544 16.4245C23.8185 15.6481 23.2574 14.7231 22.9086 13.7118C22.5599 12.7005 22.4317 11.6263 22.5326 10.5613C22.6336 9.49634 22.9613 8.46531 23.4937 7.53751ZM38.9062 54.375L40.3125 56.25H19.6875L21.0938 54.375H38.9062ZM25.3125 52.5V48.75H34.6875V52.5H25.3125ZM56.25 45.9375C56.25 46.1862 56.1512 46.4246 55.9754 46.6004C55.7996 46.7762 55.5611 46.875 55.3125 46.875H4.6875C4.43886 46.875 4.2004 46.7762 4.02459 46.6004C3.84877 46.4246 3.75 46.1862 3.75 45.9375V43.125H56.25V45.9375ZM56.25 41.25H3.75V15.9375C3.75 15.6889 3.84877 15.4504 4.02459 15.2746C4.2004 15.0988 4.43886 15 4.6875 15H21.4125C22.141 16.6717 23.3416 18.0945 24.8671 19.0937C26.3925 20.0929 28.1764 20.6252 30 20.6252C31.8236 20.6252 33.6075 20.0929 35.1329 19.0937C36.6584 18.0945 37.859 16.6717 38.5875 15H55.3125C55.5611 15 55.7996 15.0988 55.9754 15.2746C56.1512 15.4504 56.25 15.6889 56.25 15.9375V41.25Z" fill="black"/>
<path d="M50.625 1.875H54.375V3.75H50.625V1.875Z" fill="black"/>
<path d="M41.25 5.625H43.125V7.5H41.25V5.625Z" fill="black"/>
<path d="M45 5.625H54.375V7.5H45V5.625Z" fill="black"/>
<path d="M41.25 9.375H48.75V11.25H41.25V9.375Z" fill="black"/>
<path d="M50.625 9.375H54.375V11.25H50.625V9.375Z" fill="black"/>
<path d="M5.625 1.875H9.375V3.75H5.625V1.875Z" fill="black"/>
<path d="M16.875 5.625H18.75V7.5H16.875V5.625Z" fill="black"/>
<path d="M5.625 5.625H15V7.5H5.625V5.625Z" fill="black"/>
<path d="M11.25 9.375H18.75V11.25H11.25V9.375Z" fill="black"/>
<path d="M5.625 9.375H9.375V11.25H5.625V9.375Z" fill="black"/>
<path d="M5.625 30H10.3125V31.875H5.625V30Z" fill="black"/>
<path d="M12.1875 30H30V31.875H12.1875V30Z" fill="black"/>
<path d="M5.625 33.75H20.625V35.625H5.625V33.75Z" fill="black"/>
<path d="M22.5 33.75H30V35.625H22.5V33.75Z" fill="black"/>
<path d="M5.625 37.5H15V39.375H5.625V37.5Z" fill="black"/>
<path d="M16.875 37.5H30V39.375H16.875V37.5Z" fill="black"/>
<path d="M18.75 22.5H20.625V24.375H18.75V22.5Z" fill="black"/>
<path d="M22.5 22.5H30V24.375H22.5V22.5Z" fill="black"/>
<path d="M18.75 26.25H30V28.125H18.75V26.25Z" fill="black"/>
<path d="M39.2813 27.6066L40.8919 24.375H45.9375C46.0751 24.3751 46.211 24.3449 46.3356 24.2866C46.4602 24.2282 46.5704 24.1432 46.6584 24.0375L51.0647 18.75H54.375V16.875H50.625C50.4874 16.8749 50.3515 16.9051 50.2269 16.9634C50.1023 17.0218 49.9921 17.1068 49.9041 17.2125L45.4978 22.5H40.3125C40.1375 22.499 39.9657 22.5471 39.8166 22.6387C39.6675 22.7303 39.547 22.8619 39.4687 23.0184L37.8581 26.25H33.75V28.125H38.4375C38.6125 28.126 38.7843 28.0779 38.9334 27.9863C39.0825 27.8947 39.203 27.7631 39.2813 27.6066Z" fill="black"/>
</svg>
