<svg width="60" height="60" viewBox="0 0 60 60" fill="none" xmlns="http://www.w3.org/2000/svg">
<path d="M22.8525 9.60648L22.6828 9.53805H22.5V14.6427C25.8591 16.589 28.125 20.2134 28.125 24.3759C28.125 30.5887 23.0878 35.6259 16.875 35.6259C10.6622 35.6259 5.625 30.5877 5.625 24.3749C5.625 20.2134 7.89094 16.588 11.25 14.6418V9.53711H11.0672L10.8975 9.60555C4.84687 12.058 0.9375 17.8546 0.9375 24.3749C0.9375 33.163 8.08688 40.3124 16.875 40.3124C25.6631 40.3124 32.8125 33.163 32.8125 24.3749C32.8125 17.8546 28.9031 12.058 22.8525 9.60648Z" fill="#FEB104"/>
<path d="M22.8525 9.60648L22.6828 9.53805H22.5V14.6427C25.8591 16.589 28.125 20.2134 28.125 24.3759C28.125 30.5887 23.0878 35.6259 16.875 35.6259C10.6622 35.6259 5.625 30.5877 5.625 24.3749C5.625 20.2134 7.89094 16.588 11.25 14.6418V9.53711H11.0672L10.8975 9.60555C4.84687 12.058 0.9375 17.8546 0.9375 24.3749C0.9375 33.163 8.08688 40.3124 16.875 40.3124C25.6631 40.3124 32.8125 33.163 32.8125 24.3749C32.8125 17.8546 28.9031 12.058 22.8525 9.60648Z" fill="#FEB104"/>
<path d="M14.0625 5.625H19.6875V16.875H14.0625V5.625Z" fill="#FEB104"/>
<path d="M38.4375 30.9375C36.3694 30.9375 34.6875 29.2556 34.6875 27.1875C34.6875 25.1194 36.3694 23.4375 38.4375 23.4375C40.5056 23.4375 42.1875 25.1194 42.1875 27.1875C42.1875 29.2556 40.5056 30.9375 38.4375 30.9375Z" fill="#FEB104"/>
<path d="M45 25.3125H50.625V46.875H45V25.3125Z" fill="#FEB104"/>
<path d="M35.625 32.8125H41.25V46.875H35.625V32.8125Z" fill="#FEB104"/>
<path d="M26.25 38.4375H31.875V46.875H26.25V38.4375Z" fill="#FEB104"/>
<path d="M47.8125 23.4375C43.6772 23.4375 40.3125 20.0728 40.3125 15.9375C40.3125 11.8022 43.6772 8.4375 47.8125 8.4375C51.9478 8.4375 55.3125 11.8022 55.3125 15.9375C55.3125 20.0728 51.9478 23.4375 47.8125 23.4375Z" fill="#FEB104"/>
<path d="M56.25 4.6875H23.4375V3.75C23.4375 2.19937 22.1756 0.9375 20.625 0.9375H13.125C11.5744 0.9375 10.3125 2.19937 10.3125 3.75V14.1234C6.83156 16.3575 4.6875 20.2322 4.6875 24.375C4.6875 31.095 10.155 36.5625 16.875 36.5625C23.595 36.5625 29.0625 31.095 29.0625 24.375C29.0625 20.2322 26.9184 16.3575 23.4375 14.1234V6.5625H56.25C56.7675 6.5625 57.1875 6.98344 57.1875 7.5V56.25C57.1875 56.7675 56.7675 57.1875 56.25 57.1875H20.6006C21.1959 56.4019 21.5625 55.4344 21.5625 54.375V39.6066C20.9531 39.7941 20.325 39.9347 19.6875 40.0481V54.375C19.6875 55.9256 18.4256 57.1875 16.875 57.1875C15.3244 57.1875 14.0625 55.9256 14.0625 54.375V40.0491C13.425 39.9347 12.7969 39.795 12.1875 39.6075V54.375C12.1875 56.9597 14.2903 59.0625 16.875 59.0625H56.25C57.8006 59.0625 59.0625 57.8006 59.0625 56.25V7.5C59.0625 5.94938 57.8006 4.6875 56.25 4.6875ZM12.1875 3.75C12.1875 3.23344 12.6075 2.8125 13.125 2.8125H20.625C21.1425 2.8125 21.5625 3.23344 21.5625 3.75V18.75C21.5625 19.2666 21.1425 19.6875 20.625 19.6875H13.125C12.6075 19.6875 12.1875 19.2666 12.1875 18.75V3.75ZM27.1875 24.375C27.1875 30.0609 22.5609 34.6875 16.875 34.6875C11.1891 34.6875 6.5625 30.0609 6.5625 24.375C6.5625 21.2953 7.97438 18.3994 10.3125 16.4569V18.75C10.3125 20.3006 11.5744 21.5625 13.125 21.5625H20.625C22.1756 21.5625 23.4375 20.3006 23.4375 18.75V16.4569C25.7756 18.3994 27.1875 21.2953 27.1875 24.375Z" fill="black"/>
<path d="M12.1875 25.3125H14.0625V27.1875H12.1875V25.3125Z" fill="black"/>
<path d="M8.4375 25.3125H10.3125V27.1875H8.4375V25.3125Z" fill="black"/>
<path d="M15.9375 25.3125H17.8125V27.1875H15.9375V25.3125Z" fill="black"/>
<path d="M19.6875 25.3125H21.5625V27.1875H19.6875V25.3125Z" fill="black"/>
<path d="M23.4375 25.3125H25.3125V27.1875H23.4375V25.3125Z" fill="black"/>
<path d="M32.7554 25.501C32.7113 26.131 32.6382 26.7535 32.522 27.3619L34.7345 27.6507C34.7148 27.4969 34.6876 27.346 34.6876 27.1875C34.6876 26.6925 34.7888 26.2219 34.9642 25.7888L32.7554 25.501Z" fill="black"/>
<path d="M14.0625 4.6875H19.6875V6.5625H14.0625V4.6875Z" fill="black"/>
<path d="M14.0625 8.4375H19.6875V10.3125H14.0625V8.4375Z" fill="black"/>
<path d="M14.0625 12.1875H19.6875V14.0625H14.0625V12.1875Z" fill="black"/>
<path d="M14.0625 15.9375H19.6875V17.8125H14.0625V15.9375Z" fill="black"/>
<path d="M43.8217 22.2758C43.2892 21.9393 42.8036 21.5399 42.3723 21.0852L40.0576 23.8208C40.6323 24.0983 41.1273 24.5118 41.4929 25.0283L43.8217 22.2758Z" fill="black"/>
<path d="M50.8999 13.3997L46.8752 17.4243L45.663 16.2122L44.3374 17.5378L46.8752 20.0756L52.2255 14.7253L50.8999 13.3997Z" fill="black"/>
<path d="M24.375 55.3125H31.875V49.6875H24.375V55.3125ZM26.25 51.5625H30V53.4375H26.25V51.5625Z" fill="black"/>
<path d="M43.125 55.3125V49.6875H33.75V55.3125H43.125ZM35.625 51.5625H41.25V53.4375H35.625V51.5625Z" fill="black"/>
<path d="M52.5 55.3125V49.6875H45V55.3125H52.5ZM46.875 51.5625H50.625V53.4375H46.875V51.5625Z" fill="black"/>
<path d="M24.375 45.9375H52.5V47.8125H24.375V45.9375Z" fill="black"/>
</svg>
