<svg width="60" height="60" viewBox="0 0 60 60" fill="none" xmlns="http://www.w3.org/2000/svg">
<path d="M44.0625 53.4375C38.8931 53.4375 34.6875 49.2319 34.6875 44.0625C34.6875 38.8931 38.8931 34.6875 44.0625 34.6875C49.2319 34.6875 53.4375 38.8931 53.4375 44.0625C53.4375 49.2319 49.2319 53.4375 44.0625 53.4375ZM44.0625 39.375C41.4778 39.375 39.375 41.4778 39.375 44.0625C39.375 46.6472 41.4778 48.75 44.0625 48.75C46.6472 48.75 48.75 46.6472 48.75 44.0625C48.75 41.4778 46.6472 39.375 44.0625 39.375Z" fill="#FEB104"/>
<path d="M4.6875 11.25H21.5625V24.375H4.6875V11.25Z" fill="#FEB104"/>
<path d="M44.0625 38.4375C40.9603 38.4375 38.4375 40.9603 38.4375 44.0625C38.4375 47.1647 40.9603 49.6875 44.0625 49.6875C47.1647 49.6875 49.6875 47.1647 49.6875 44.0625C49.6875 40.9603 47.1647 38.4375 44.0625 38.4375ZM44.0625 47.8125C41.9944 47.8125 40.3125 46.1306 40.3125 44.0625C40.3125 41.9944 41.9944 40.3125 44.0625 40.3125C46.1306 40.3125 47.8125 41.9944 47.8125 44.0625C47.8125 46.1306 46.1306 47.8125 44.0625 47.8125Z" fill="black"/>
<path d="M53.4375 32.3719V13.9875C56.6128 13.53 59.0625 10.7991 59.0625 7.5C59.0625 3.88219 56.1188 0.9375 52.5 0.9375C48.8812 0.9375 45.9375 3.88219 45.9375 7.5H0.9375V45H29.1103C29.5978 52.8338 36.1087 59.0625 44.0625 59.0625C52.3331 59.0625 59.0625 52.3331 59.0625 44.0625C59.0625 39.3384 56.8622 35.1234 53.4375 32.3719ZM52.5 2.8125C55.0847 2.8125 57.1875 4.91531 57.1875 7.5C57.1875 10.0847 55.0847 12.1875 52.5 12.1875C49.9153 12.1875 47.8125 10.0847 47.8125 7.5C47.8125 4.91531 49.9153 2.8125 52.5 2.8125ZM29.1103 43.125H2.8125V9.375H46.2141C46.4381 10.1231 46.7944 10.8122 47.2519 11.4234L41.5181 17.1572C41.1506 16.9809 40.7456 16.875 40.3125 16.875C39.8794 16.875 39.4744 16.9809 39.1078 17.1572L37.2188 15.2681C37.3941 14.9006 37.5 14.4956 37.5 14.0625C37.5 12.5119 36.2381 11.25 34.6875 11.25C33.1369 11.25 31.875 12.5119 31.875 14.0625C31.875 14.4956 31.9809 14.9006 32.1572 15.2672L27.4556 19.9688C27.0881 19.7934 26.6831 19.6875 26.25 19.6875C24.6994 19.6875 23.4375 20.9494 23.4375 22.5C23.4375 24.0506 24.6994 25.3125 26.25 25.3125C27.8006 25.3125 29.0625 24.0506 29.0625 22.5C29.0625 22.0669 28.9566 21.6619 28.7803 21.2953L33.4819 16.5938C33.8494 16.7691 34.2544 16.875 34.6875 16.875C35.1206 16.875 35.5256 16.7691 35.8922 16.5928L37.7812 18.4819C37.6059 18.8494 37.5 19.2544 37.5 19.6875C37.5 21.2381 38.7619 22.5 40.3125 22.5C41.8631 22.5 43.125 21.2381 43.125 19.6875C43.125 19.2544 43.0191 18.8494 42.8428 18.4828L48.5775 12.7491C49.4353 13.3922 50.4534 13.8281 51.5625 13.9884V31.0931C49.3528 29.8097 46.7962 29.0625 44.0625 29.0625C39.5812 29.0625 35.5631 31.0481 32.8125 34.1747V30H27.1875V41.25H29.3363C29.2191 41.8622 29.1497 42.4894 29.1103 43.125ZM41.25 19.6875C41.25 20.205 40.8291 20.625 40.3125 20.625C39.7959 20.625 39.375 20.205 39.375 19.6875C39.375 19.17 39.7959 18.75 40.3125 18.75C40.8291 18.75 41.25 19.17 41.25 19.6875ZM35.625 14.0625C35.625 14.58 35.2041 15 34.6875 15C34.1709 15 33.75 14.58 33.75 14.0625C33.75 13.545 34.1709 13.125 34.6875 13.125C35.2041 13.125 35.625 13.545 35.625 14.0625ZM27.1875 22.5C27.1875 23.0175 26.7666 23.4375 26.25 23.4375C25.7334 23.4375 25.3125 23.0175 25.3125 22.5C25.3125 21.9825 25.7334 21.5625 26.25 21.5625C26.7666 21.5625 27.1875 21.9825 27.1875 22.5ZM29.0625 39.375V31.875H30.9375V36.8166C30.4884 37.6266 30.1172 38.4825 29.8228 39.375H29.0625ZM55.8544 49.7878L52.6022 47.91C52.3425 48.4847 52.0256 49.0256 51.6609 49.5319L54.9263 51.4172C52.5638 54.8972 48.5756 57.1875 44.0625 57.1875C39.5494 57.1875 35.5612 54.8972 33.1987 51.4172L36.4641 49.5319C36.0984 49.0256 35.7825 48.4837 35.5228 47.91L32.2706 49.7878C31.425 48.0553 30.9375 46.1166 30.9375 44.0625C30.9375 37.1419 36.3253 31.4691 43.125 30.9853V34.7353C43.4334 34.7044 43.7456 34.6875 44.0625 34.6875C44.3794 34.6875 44.6916 34.7044 45 34.7353V30.9853C51.7997 31.4691 57.1875 37.1419 57.1875 44.0625C57.1875 46.1166 56.7 48.0553 55.8544 49.7878Z" fill="black"/>
<path d="M4.6875 11.25H6.5625V13.125H4.6875V11.25Z" fill="black"/>
<path d="M8.4375 11.25H21.5625V13.125H8.4375V11.25Z" fill="black"/>
<path d="M4.6875 15H6.5625V16.875H4.6875V15Z" fill="black"/>
<path d="M8.4375 15H21.5625V16.875H8.4375V15Z" fill="black"/>
<path d="M4.6875 18.75H6.5625V20.625H4.6875V18.75Z" fill="black"/>
<path d="M8.4375 18.75H21.5625V20.625H8.4375V18.75Z" fill="black"/>
<path d="M4.6875 22.5H6.5625V24.375H4.6875V22.5Z" fill="black"/>
<path d="M8.4375 22.5H21.5625V24.375H8.4375V22.5Z" fill="black"/>
<path d="M4.6875 41.25H10.3125V31.875H4.6875V41.25ZM6.5625 33.75H8.4375V39.375H6.5625V33.75Z" fill="black"/>
<path d="M12.1875 41.25H17.8125V33.75H12.1875V41.25ZM14.0625 35.625H15.9375V39.375H14.0625V35.625Z" fill="black"/>
<path d="M19.6875 41.25H25.3125V26.25H19.6875V41.25ZM21.5625 28.125H23.4375V39.375H21.5625V28.125Z" fill="black"/>
</svg>
