<svg width="60" height="60" viewBox="0 0 60 60" fill="none" xmlns="http://www.w3.org/2000/svg">
<path d="M37.5 23.4375H22.5C21.4641 23.4375 20.625 24.2766 20.625 25.3125C20.625 26.3484 21.4641 27.1875 22.5 27.1875H37.5C38.5359 27.1875 39.375 26.3484 39.375 25.3125C39.375 24.2766 38.5359 23.4375 37.5 23.4375Z" fill="#FEB104"/>
<path d="M37.5 32.8125H22.5C21.4641 32.8125 20.625 33.6516 20.625 34.6875C20.625 35.7234 21.4641 36.5625 22.5 36.5625H37.5C38.5359 36.5625 39.375 35.7234 39.375 34.6875C39.375 33.6516 38.5359 32.8125 37.5 32.8125Z" fill="#FEB104"/>
<path d="M50.625 49.6875H54.375V54.375H50.625V49.6875Z" fill="#FEB104"/>
<path d="M5.625 27.1875H9.375V31.875H5.625V27.1875Z" fill="#FEB104"/>
<path d="M4.6875 49.6875H15.9375V54.375H4.6875V49.6875Z" fill="#FEB104"/>
<path d="M44.0625 5.625H55.3125V10.3125H44.0625V5.625Z" fill="#FEB104"/>
<path d="M51.5625 28.125H55.3125V32.8125H51.5625V28.125Z" fill="#FEB104"/>
<path d="M52.5 45.9375C49.2009 45.9375 46.47 48.3872 46.0125 51.5625H36.5625C35.0119 51.5625 33.75 50.3006 33.75 48.75V43.125H40.3125C41.8631 43.125 43.125 41.8631 43.125 40.3125V38.4375C43.125 36.8869 41.8631 35.625 40.3125 35.625H19.6875C18.1369 35.625 16.875 36.8869 16.875 38.4375V40.3125C16.875 41.8631 18.1369 43.125 19.6875 43.125H26.25V48.75C26.25 50.3006 24.9881 51.5625 23.4375 51.5625H19.6875V45.9375H0.9375V59.0625H19.6875V53.4375H23.4375C26.0222 53.4375 28.125 51.3347 28.125 48.75V43.125H31.875V48.75C31.875 51.3347 33.9778 53.4375 36.5625 53.4375H46.0125C46.47 56.6128 49.2009 59.0625 52.5 59.0625C56.1178 59.0625 59.0625 56.1187 59.0625 52.5C59.0625 48.8813 56.1178 45.9375 52.5 45.9375ZM17.8125 57.1875H2.8125V47.8125H17.8125V57.1875ZM18.75 40.3125V38.4375C18.75 37.9209 19.17 37.5 19.6875 37.5H40.3125C40.83 37.5 41.25 37.9209 41.25 38.4375V40.3125C41.25 40.8291 40.83 41.25 40.3125 41.25H19.6875C19.17 41.25 18.75 40.8291 18.75 40.3125ZM52.5 57.1875C49.9153 57.1875 47.8125 55.0847 47.8125 52.5C47.8125 49.9153 49.9153 47.8125 52.5 47.8125C55.0847 47.8125 57.1875 49.9153 57.1875 52.5C57.1875 55.0847 55.0847 57.1875 52.5 57.1875Z" fill="black"/>
<path d="M50.625 53.4375H54.375V55.3125H50.625V53.4375Z" fill="black"/>
<path d="M50.625 49.6875H54.375V51.5625H50.625V49.6875Z" fill="black"/>
<path d="M5.625 30.9375H9.375V32.8125H5.625V30.9375Z" fill="black"/>
<path d="M5.625 27.1875H9.375V29.0625H5.625V27.1875Z" fill="black"/>
<path d="M40.3123 0.9375V6.5625H36.5623C33.9776 6.5625 31.8748 8.66531 31.8748 11.25V16.875H28.1248V12.1875C28.1248 9.60281 26.022 7.5 23.4373 7.5H18.1254L10.3123 1.64062L1.24951 8.4375L10.3123 15.2344L18.1254 9.375H23.4373C24.9879 9.375 26.2498 10.6369 26.2498 12.1875V16.875H19.6873C18.1367 16.875 16.8748 18.1369 16.8748 19.6875V21.5625C16.8748 23.1131 18.1367 24.375 19.6873 24.375H40.3123C41.8629 24.375 43.1248 23.1131 43.1248 21.5625V19.6875C43.1248 18.1369 41.8629 16.875 40.3123 16.875H33.7498V11.25C33.7498 9.69938 35.0117 8.4375 36.5623 8.4375H40.3123V14.0625H59.0623V0.9375H40.3123ZM10.3123 12.8906L4.37514 8.4375L10.3123 3.98438L16.2495 8.4375L10.3123 12.8906ZM41.2498 19.6875V21.5625C41.2498 22.0791 40.8298 22.5 40.3123 22.5H19.6873C19.1698 22.5 18.7498 22.0791 18.7498 21.5625V19.6875C18.7498 19.1709 19.1698 18.75 19.6873 18.75H40.3123C40.8298 18.75 41.2498 19.1709 41.2498 19.6875ZM57.1873 12.1875H42.1873V2.8125H57.1873V12.1875Z" fill="black"/>
<path d="M4.6875 49.6875H6.5625V51.5625H4.6875V49.6875Z" fill="black"/>
<path d="M8.4375 49.6875H10.3125V51.5625H8.4375V49.6875Z" fill="black"/>
<path d="M12.1875 49.6875H15.9375V51.5625H12.1875V49.6875Z" fill="black"/>
<path d="M4.6875 53.4375H15.9375V55.3125H4.6875V53.4375Z" fill="black"/>
<path d="M44.0625 4.6875H55.3125V6.5625H44.0625V4.6875Z" fill="black"/>
<path d="M44.0625 8.4375H55.3125V10.3125H44.0625V8.4375Z" fill="black"/>
<path d="M7.5 7.5H13.125V9.375H7.5V7.5Z" fill="black"/>
<path d="M47.8125 29.0625H43.125C43.125 27.5119 41.8631 26.25 40.3125 26.25H19.6875C18.1369 26.25 16.875 27.5119 16.875 29.0625H13.9875C13.53 25.8872 10.7991 23.4375 7.5 23.4375C3.88219 23.4375 0.9375 26.3813 0.9375 30C0.9375 33.6187 3.88219 36.5625 7.5 36.5625C10.7991 36.5625 13.53 34.1128 13.9875 30.9375H16.875C16.875 32.4881 18.1369 33.75 19.6875 33.75H40.3125C41.8631 33.75 43.125 32.4881 43.125 30.9375H47.8125V36.5625H59.0625V23.4375H47.8125V29.0625ZM7.5 34.6875C4.91531 34.6875 2.8125 32.5847 2.8125 30C2.8125 27.4153 4.91531 25.3125 7.5 25.3125C10.0847 25.3125 12.1875 27.4153 12.1875 30C12.1875 32.5847 10.0847 34.6875 7.5 34.6875ZM41.25 30.9375C41.25 31.4541 40.83 31.875 40.3125 31.875H19.6875C19.17 31.875 18.75 31.4541 18.75 30.9375V29.0625C18.75 28.5459 19.17 28.125 19.6875 28.125H40.3125C40.83 28.125 41.25 28.5459 41.25 29.0625V30.9375ZM49.6875 25.3125H57.1875V34.6875H49.6875V25.3125Z" fill="black"/>
<path d="M51.5625 27.1875H55.3125V29.0625H51.5625V27.1875Z" fill="black"/>
<path d="M51.5625 30.9375H55.3125V32.8125H51.5625V30.9375Z" fill="black"/>
</svg>
