<svg width="60" height="60" viewBox="0 0 60 60" fill="none" xmlns="http://www.w3.org/2000/svg">
<path d="M16 7.5L12.5 6.75V30.25L13.5 34.75L16.25 40L20 44L25.75 47.75L30 49.75L34.5 47.75L40 44L43.75 40L46.25 34.75L47.5 30.25V6.75L44.25 7.5L39.25 7.25L34.25 5.5L30 2.5L26.25 5.5L21 7.25L16 7.5Z" fill="white"/>
<path d="M5.11895 29.2828V3.41455L9.00944 5.37832L12.8999 7.34209V33.3811C14.6999 39.6 20.9999 46.2 29.9999 49.8C42.141 45.8383 47.0999 37.8 47.3999 30V7.37628L54.7407 3.41455V33.3811C53.6039 39.1301 47.1885 52.599 29.9999 58.2C9.67376 51.2329 4.89159 35.8287 5.11895 29.2828Z" fill="#FEB104"/>
<path d="M12.5998 7.1999V28.0489C12.5998 39.7177 20.3896 45.6751 30.1066 49.7999C39.7392 45.7109 47.3998 39.5521 47.3998 28.0489V7.1999M20.3998 22.7999C19.0743 22.7999 17.9998 23.8744 17.9998 25.1999C17.9998 26.5254 19.0743 27.5999 20.3998 27.5999C21.7253 27.5999 22.7998 26.5254 22.7998 25.1999C22.7998 23.8744 21.7253 22.7999 20.3998 22.7999ZM20.3998 22.7999V13.7999M26.9998 16.1999C25.6743 16.1999 24.5998 17.2744 24.5998 18.5999C24.5998 19.9254 25.6743 20.9999 26.9998 20.9999C28.3253 20.9999 29.3998 19.9254 29.3998 18.5999C29.3998 17.2744 28.3253 16.1999 26.9998 16.1999ZM26.9998 16.1999V13.7999H20.3998M38.3998 22.1999C37.0743 22.1999 35.9998 23.2744 35.9998 24.5999C35.9998 25.9254 37.0743 26.9999 38.3998 26.9999C39.7253 26.9999 40.7998 25.9254 40.7998 24.5999C40.7998 23.2744 39.7253 22.1999 38.3998 22.1999ZM38.3998 22.1999V18.8999H47.3998M37.1998 34.1999C37.1998 35.5254 38.2743 36.5999 39.5998 36.5999C40.9253 36.5999 41.9998 35.5254 41.9998 34.1999C41.9998 32.8744 40.9253 31.7999 39.5998 31.7999C38.2743 31.7999 37.1998 32.8744 37.1998 34.1999ZM37.1998 34.1999H26.0998V40.1999M29.3998 40.1999C29.3998 41.5254 30.4743 42.5999 31.7998 42.5999C33.1253 42.5999 34.1998 41.5254 34.1998 40.1999C34.1998 38.8744 33.1253 37.7999 31.7998 37.7999C30.4743 37.7999 29.3998 38.8744 29.3998 40.1999ZM29.3998 40.1999H26.0998M20.3998 13.7999V7.4999M26.0998 40.1999H16.4998M4.7998 2.3999V26.6999C4.7998 36.8999 8.20103 43.1999 12.2207 47.3999C17.1016 52.4999 23.9704 55.4999 30.1544 58.1999C36.3385 55.4999 42.898 52.4999 47.7789 47.3999C51.7986 43.1999 55.1998 36.8999 55.1998 26.6999V2.3999C49.1998 8.3999 37.4998 9.8999 30.1544 2.3999C22.1998 10.1999 10.7998 8.0999 4.7998 2.3999Z" stroke="black" stroke-width="1.5" stroke-linecap="round" stroke-linejoin="round"/>
</svg>
