<svg width="60" height="60" viewBox="0 0 60 60" fill="none" xmlns="http://www.w3.org/2000/svg">
<path d="M52.7893 15.6142L52.0781 14.903C49.956 12.7809 47.1359 11.6128 44.1349 11.6128C37.9424 11.6128 32.9033 16.6519 32.9033 22.8444V29.0321H33.8711C33.8711 26.8944 35.6043 25.1612 37.742 25.1612H41.7793C43.5319 25.1612 45.2132 24.4651 46.4517 23.2257C47.6912 24.4651 49.3715 25.1612 51.1241 25.1612H51.2904C53.4281 25.1612 55.1614 26.8944 55.1614 29.0321H56.1291V20.4794C56.1291 18.3123 54.7966 16.3868 52.7893 15.6142Z" fill="#FEB104"/>
<path d="M21.2924 36.1036C21.9232 35.1481 22.2582 34.0419 22.2582 32.9031C22.2582 32.5672 22.2294 32.2307 22.1722 31.9014L20.2646 32.2326C20.3034 32.4523 20.3228 32.6787 20.3228 32.9031C20.3228 33.6611 20.1002 34.3973 19.6782 35.0333L21.2924 36.1036Z" fill="black"/>
<path d="M16.4515 38.7097C17.5903 38.7097 18.6965 38.3747 19.6519 37.7438L18.5826 36.1297C17.9456 36.5517 17.2094 36.7742 16.4515 36.7742C14.3166 36.7742 12.5805 35.0381 12.5805 32.9032C12.5805 32.6779 12.6008 32.4525 12.6386 32.2365L10.7329 31.8977C10.6738 32.2266 10.645 32.5644 10.645 32.9032C10.645 36.1056 13.2491 38.7097 16.4515 38.7097Z" fill="black"/>
<path d="M16.4518 42.5806C21.7881 42.5806 26.1293 38.2395 26.1293 32.9032C26.1293 31.8485 25.961 30.8127 25.6288 29.8237L23.794 30.4394C24.0591 31.23 24.1938 32.0583 24.1938 32.9032C24.1938 37.172 20.7207 40.6451 16.4518 40.6451C12.183 40.6451 8.7099 37.172 8.7099 32.9032C8.7099 32.0583 8.84457 31.23 9.10966 30.4394L7.27482 29.8237C6.94263 30.8127 6.77441 31.8485 6.77441 32.9032C6.77441 38.2395 11.1155 42.5806 16.4518 42.5806Z" fill="black"/>
<path d="M14.5162 50.3226H16.4516V46.4517H14.3692L14.0035 44.2596L13.4043 44.0971C12.446 43.8367 11.5326 43.4596 10.6896 42.9757L10.1505 42.6667L8.34492 43.9567L5.39822 41.01L6.68822 39.2045L6.37919 38.6653C5.89532 37.8223 5.51729 36.9099 5.25788 35.9506L5.09532 35.3515L2.90326 34.9857V30.8199L5.09532 30.4551L5.25788 29.8559C5.38735 29.3796 5.54706 28.9095 5.71859 28.4941L6.176 27.5023L4.41866 26.6914L3.9466 27.7192C3.80721 28.0537 3.68246 28.3987 3.56905 28.7469L0.967773 29.1802V36.6273L3.56811 37.0597C3.79161 37.7576 4.07135 38.4319 4.40118 39.0774L2.87113 41.2203L8.13464 46.4838L10.2776 44.9538C10.923 45.2845 11.5973 45.5633 12.2953 45.7868L12.7276 48.3872H14.5162V50.3226Z" fill="black"/>
<path d="M24.5584 43.9567L22.7529 42.6667L22.2137 42.9757C21.3707 43.4596 20.4582 43.8376 19.499 44.0971L18.8998 44.2596L18.3999 47.2606L20.3089 47.5782L20.608 45.7868C21.306 45.5633 21.9803 45.2836 22.6257 44.9538L24.7687 46.4838L30.0322 41.2203L28.5021 39.0774C28.8329 38.4319 29.1117 37.7576 29.3352 37.0597L31.9355 36.6273V29.1802L29.3343 28.7469C29.2208 28.3944 29.0914 28.0414 28.9435 27.6832L28.4856 26.6914L26.7282 27.5023L27.1705 28.4587C27.3562 28.9095 27.516 29.3796 27.6454 29.8559L27.808 30.4551L30 30.8199V34.9857L27.808 35.3515L27.6454 35.9506C27.3851 36.9089 27.008 37.8223 26.5241 38.6653L26.2151 39.2045L27.5051 41.01L24.5584 43.9567Z" fill="black"/>
<path d="M56.0274 40.0829L49.3548 38.8694V37.0015C50.3892 36.1703 51.2034 35.0797 51.7033 33.8294C54.1751 33.6154 56.129 31.5589 56.129 29.0323C56.129 26.6961 54.4633 24.7412 52.258 24.2914L50.3226 24.1307C49.1204 23.9601 48.0095 23.4144 47.1358 22.5416L46.4516 21.8564L45.7674 22.5416C44.7018 23.6072 43.2861 24.1936 41.7792 24.1936H38.7097L36.7742 24.2914C34.5689 24.7412 32.9032 26.6952 32.9032 29.0323C32.9032 31.5589 34.8571 33.6154 37.3289 33.8294C37.8279 35.0807 38.643 36.1703 39.6774 37.0015V38.8694L33.0039 40.0829C30.7036 40.503 29.0322 42.5041 29.0322 44.8432V58.0645H16.4516V56.1291H14.5161V60H60V44.8432C60 42.5041 58.3286 40.503 56.0274 40.0829ZM52.258 30.9678V26.3072C53.3817 26.7079 54.1935 27.7725 54.1935 29.0323C54.1935 30.3076 53.3614 31.3808 52.2165 31.7701C52.2434 31.5069 52.258 31.2385 52.258 30.9678ZM34.8387 29.0323C34.8387 27.7725 35.6505 26.7079 36.7742 26.3072V30.9678C36.7742 31.2385 36.7888 31.5069 36.8158 31.7701C35.6708 31.3808 34.8387 30.3076 34.8387 29.0323ZM38.7097 30.9678V26.1291H41.7792C43.495 26.1291 45.1238 25.563 46.4516 24.5177C47.5691 25.3976 48.9059 25.9131 50.3226 26.0624V30.9678C50.3226 34.1701 47.7185 36.7742 44.5161 36.7742C41.3138 36.7742 38.7097 34.1701 38.7097 30.9678ZM41.6129 39.1936V38.1398C42.5098 38.5046 43.4893 38.7097 44.5161 38.7097C45.5429 38.7097 46.5225 38.5046 47.4193 38.1398V39.1936L44.5161 41.371L41.6129 39.1936ZM42.7838 42.4909L40.3569 43.9472L39.7327 40.8271L40.4032 40.7052L42.7838 42.4909ZM48.629 40.7052L49.2995 40.8271L48.6753 43.9472L46.2484 42.4909L48.629 40.7052ZM48.3871 58.0645H45.662C46.0627 56.9409 47.1273 56.1291 48.3871 56.1291V58.0645ZM58.0645 58.0645H50.3226V56.1291H54.1935V47.4194H52.258V54.1936H48.3871C46.0509 54.1936 44.096 55.8592 43.6462 58.0645H36.7742V47.4194H34.8387V58.0645H30.9677V44.8432C30.9677 43.4402 31.9704 42.239 33.3512 41.9867L37.8279 41.1735L38.997 47.0215L44.5161 43.71L50.0343 47.0206L51.2034 41.1735L55.6792 41.9867C57.0618 42.2381 58.0645 43.4402 58.0645 44.8432V58.0645Z" fill="black"/>
<path d="M14.5161 52.2583H16.4516V54.1938H14.5161V52.2583Z" fill="black"/>
<path d="M16.4516 32.9032C7.38092 32.9032 0 25.5223 0 16.4516C0 7.38092 7.38092 0 16.4516 0C25.5223 0 32.9032 7.38092 32.9032 16.4516C32.9032 25.5223 25.5223 32.9032 16.4516 32.9032ZM16.4516 3.87097C9.51487 3.87097 3.87097 9.51487 3.87097 16.4516C3.87097 23.3884 9.51487 29.0323 16.4516 29.0323C23.3884 29.0323 29.0323 23.3884 29.0323 16.4516C29.0323 9.51487 23.3884 3.87097 16.4516 3.87097Z" fill="#FEB104"/>
<path d="M15.4839 11.6128V17.4192H19.3549V15.4838H17.4194V11.6128H15.4839Z" fill="black"/>
<path d="M17.4194 28.0211V24.1936H15.484V28.0155C9.85282 27.5477 5.35575 23.0506 4.88795 17.4195H8.70977V15.484H4.88228C5.08546 13.0684 6.0447 10.7615 7.63949 8.90257L6.17039 7.64233C4.06385 10.0985 2.90332 13.2262 2.90332 16.4517C2.90332 23.9229 8.98053 30.0001 16.4517 30.0001C19.6763 30.0001 22.8039 28.8396 25.2611 26.734L23.9999 25.2639C22.1419 26.8587 19.835 27.818 17.4194 28.0211Z" fill="black"/>
<path d="M16.4515 2.90332C13.2279 2.90332 10.1002 4.06385 7.64209 6.16945L8.90327 7.63949C10.7613 6.04565 13.0691 5.08641 15.4837 4.88228V8.70977H17.4192V4.88795C23.0504 5.35575 27.5474 9.85282 28.0152 15.484H24.1934V17.4194H28.0209C27.8177 19.835 26.8585 22.1429 25.2637 24.0009L26.7328 25.2611C28.8393 22.8049 29.9999 19.6772 29.9999 16.4517C29.9999 8.98053 23.9226 2.90332 16.4515 2.90332Z" fill="black"/>
</svg>
