<svg width="16" height="10" viewBox="0 0 16 10" fill="none" xmlns="http://www.w3.org/2000/svg">
<path d="M8.61825 0.0527344C7.7002 0.0527344 6.90844 0.136968 6.23741 0.335421C3.21221 1.11314 0 5.12924 0 5.12924C0 5.12924 4.10326 9.94694 7.38208 9.94694C8.29995 9.94694 9.09189 9.86252 9.76277 9.66392C12.788 8.88617 16 4.87058 16 4.87058C16 4.87058 11.8971 0.0527344 8.61825 0.0527344ZM7.81472 8.37206C6.05354 8.37206 4.62621 6.94455 4.62621 5.18355C4.62621 3.42219 6.05354 1.99486 7.81472 1.99486C9.5759 1.99486 11.0034 3.42219 11.0034 5.18355C11.0034 6.94455 9.5759 8.37206 7.81472 8.37206Z" fill="black"/>
<path d="M7.90076 3.6748C7.95282 3.77184 7.98517 3.88099 7.98517 3.99897C7.98517 4.38041 7.67552 4.68971 7.29426 4.68971C6.9943 4.68971 6.74122 4.497 6.6459 4.2299C6.43417 4.48989 6.302 4.8177 6.302 5.17926C6.302 6.01482 6.97943 6.69258 7.81513 6.69258C8.65084 6.69258 9.32827 6.01518 9.32827 5.17926C9.32827 4.37265 8.69549 3.72046 7.90076 3.6748Z" fill="black"/>
</svg>
