<svg width="100" height="100" viewBox="0 0 100 100" fill="none" xmlns="http://www.w3.org/2000/svg">
<path d="M42 43.5C42 47.6421 32.8218 51 21.5 51C10.1782 51 1 47.6421 1 43.5" stroke="black" stroke-width="2"/>
<path d="M42 30C42 34.1421 32.8218 37.5 21.5 37.5C10.1782 37.5 1 34.1421 1 30" stroke="black" stroke-width="2"/>
<path d="M42 56C42 60.1421 32.8218 63.5 21.5 63.5C10.1782 63.5 1 60.1421 1 56" stroke="black" stroke-width="2"/>
<path d="M42 29C41.2967 25.091 32.4074 22 21.5448 22C10.6822 22 1.74801 25.091 1.04475 29L1.04466 70C1.74793 73.909 10.6822 77 21.5448 77C32.4074 77 41.2967 73.909 42 70V29Z" stroke="black" stroke-width="2"/>
<path d="M71.5 25V5H79.5L85.5 9H98.5V25H71.5Z" fill="#FEB104"/>
<path d="M72 60V40H80L86 44H99V60H72Z" fill="#FEB104"/>
<path d="M72 95V75H80L86 79H99V95H72Z" fill="#FEB104"/>
<path d="M71.5 25V5H79.5L85.5 9H98.5V25H71.5Z" stroke="black" stroke-width="2"/>
<path d="M72 60V40H80L86 44H99V60H72Z" stroke="black" stroke-width="2"/>
<path d="M72 95V75H80L86 79H99V95H72Z" stroke="black" stroke-width="2"/>
<circle cx="57" cy="50" r="3" fill="#FEB104"/>
<circle cx="57" cy="50" r="4" stroke="black" stroke-width="2"/>
<path d="M67 15H57V46" stroke="black" stroke-width="2"/>
<path d="M67 85H57V54" stroke="black" stroke-width="2"/>
<path d="M53 50H47" stroke="black" stroke-width="2"/>
<path d="M67 50H61" stroke="black" stroke-width="2"/>
</svg>
