<svg width="100" height="100" viewBox="0 0 100 100" fill="none" xmlns="http://www.w3.org/2000/svg">
<path d="M24.9999 49.4444V5H74.7222V50.2778H65.5V46.9444L62 45.8333L64 42.5L58.5 37.5L55.5 39.4444L54 35.5H47L46.1111 39.4444L42.5 37.5L37.5 42.5L39.4444 45.8333L35 46.9444V49.4444H24.9999Z" fill="#FEB104"/>
<path d="M4.7619 70V76.0001C4.7619 78.2092 6.55277 80.0001 8.7619 80.0001H40.5M4.7619 70V18.2858C4.7619 16.0766 6.55276 14.2858 8.7619 14.2858H24.7619M4.7619 70H95.2381M95.2381 70V18.2858C95.2381 16.0766 93.4472 14.2858 91.2381 14.2858H75.2381M95.2381 70V76.0001C95.2381 78.2092 93.4472 80.0001 91.2381 80.0001H59.5M35.381 50.4762H25.7619C25.2096 50.4762 24.7619 50.0285 24.7619 49.4762V44.762M65.619 50.4762H74.2381C74.7904 50.4762 75.2381 50.0285 75.2381 49.4762V44.762M39 88L36.3158 88.0001L30 96.0001H70L63.6842 88.0001L61 88.0001M39 88L40.5 80.0001M39 88L61 88.0001M40.5 80.0001H59.5M61 88.0001L59.5 80.0001M31 11H44M31 17H47M50.4762 17H58.8083M63 17H69M31 23.5H40M44 23.5H64M67 23.5H69M31 29.5H48M51.5 29.5H58M61 29.5H69M10 20H19V33H24.7619M24.7619 33V5.76196C24.7619 5.20968 25.2096 4.76196 25.7619 4.76196H74.2381C74.7904 4.76196 75.2381 5.20968 75.2381 5.76196V33M24.7619 33V39M24.7619 39H14V47H9.5M24.7619 39V44.762M24.7619 44.762H20V63.5H10M75.2381 33H81.5V21H90M75.2381 33V39M75.2381 39H86V46.6667H90M75.2381 39V44.762M75.2381 44.762H80V63.5H90M46.6667 35.2382H54.2857L55.1357 39.7712L58.8083 37.2584L64.1958 42.6459L61.9301 45.9572L65.7143 46.6667V54.2858L61.6259 55.0523L64.1958 58.8083L58.8083 64.1958L55.0523 61.6259L54.2857 65.7143H46.6667L45.9571 61.9302L42.6459 64.1958L37.2584 58.8083L39.7712 55.1357L35.2381 54.2858V46.6667L39.467 45.8738L37.2584 42.6459L42.6459 37.2584L45.8738 39.4669L46.6667 35.2382ZM56.1905 50.4762C56.1905 53.6322 53.6321 56.1905 50.4762 56.1905C47.3203 56.1905 44.7619 53.6322 44.7619 50.4762C44.7619 47.3203 47.3203 44.762 50.4762 44.762C53.6321 44.762 56.1905 47.3203 56.1905 50.4762Z" stroke="black" stroke-width="2" stroke-linecap="round" stroke-linejoin="round"/>
</svg>
