<svg width="100" height="100" viewBox="0 0 100 100" fill="none" xmlns="http://www.w3.org/2000/svg">
<path fill-rule="evenodd" clip-rule="evenodd" d="M89 49.5C89 70.763 71.763 88 50.5 88C29.237 88 12 70.763 12 49.5C12 28.237 29.237 11 50.5 11C71.763 11 89 28.237 89 49.5ZM50.5 79.0465C66.8181 79.0465 80.0465 65.8181 80.0465 49.5C80.0465 33.1819 66.8181 19.9535 50.5 19.9535C34.1819 19.9535 20.9535 33.1819 20.9535 49.5C20.9535 65.8181 34.1819 79.0465 50.5 79.0465Z" fill="#FEB104"/>
<circle cx="50.5" cy="49.5" r="28.5" stroke="black" stroke-width="2"/>
<path d="M91.2929 50.7071C91.6834 51.0976 92.3166 51.0976 92.7071 50.7071L99.0711 44.3431C99.4616 43.9526 99.4616 43.3195 99.0711 42.9289C98.6805 42.5384 98.0474 42.5384 97.6569 42.9289L92 48.5858L86.3431 42.9289C85.9526 42.5384 85.3195 42.5384 84.9289 42.9289C84.5384 43.3195 84.5384 43.9526 84.9289 44.3431L91.2929 50.7071ZM50 9C72.6437 9 91 27.3563 91 50H93C93 26.2518 73.7482 7 50 7V9Z" fill="black"/>
<path d="M8.70711 49.2929C8.31658 48.9024 7.68342 48.9024 7.29289 49.2929L0.928932 55.6569C0.538407 56.0474 0.538407 56.6805 0.928932 57.0711C1.31946 57.4616 1.95262 57.4616 2.34315 57.0711L8 51.4142L13.6569 57.0711C14.0474 57.4616 14.6805 57.4616 15.0711 57.0711C15.4616 56.6805 15.4616 56.0474 15.0711 55.6569L8.70711 49.2929ZM50 91C27.3563 91 9 72.6437 9 50H7C7 73.7482 26.2518 93 50 93V91Z" fill="black"/>
<path d="M12 50C12 28.4609 29.0132 11 50 11" stroke="black" stroke-width="2" stroke-dasharray="2 2"/>
<path d="M89 50C89 70.9868 71.5391 88 50 88" stroke="black" stroke-width="2" stroke-dasharray="2 2"/>
<path d="M50 22V32" stroke="black" stroke-width="2"/>
<path d="M50 66V77" stroke="black" stroke-width="2"/>
<path d="M50 38L50 50L57 50" stroke="black" stroke-width="2"/>
<path d="M68 50L78 50" stroke="black" stroke-width="2"/>
<path d="M22 50L31 50" stroke="black" stroke-width="2"/>
</svg>
