<svg width="100" height="100" viewBox="0 0 100 100" fill="none" xmlns="http://www.w3.org/2000/svg">
<path d="M39.4366 26.9441L45.5 24C48.9495 25.1171 50.9124 25.2034 54.5 24L61.5 27.5L63.5 31V56.5L61.5 59L57.7699 59.5V95.333C55.5 92.5 52.5 92 49.8533 95.333C47.5 92.5 44.5 92.5 41.9366 95.5V59.9997L38 59L36.1033 55.5553L37 30L39.4366 26.9441Z" fill="#FEB104"/>
<path d="M46.5 18V21.2919C46.5 22.2874 46.1311 23.2218 45.5 23.9377M42 59.5H40.5C38.2909 59.5 36.5 57.7091 36.5 55.5V32.0622C36.5 29.6088 37.9937 27.4025 40.2717 26.4913L43.9856 25.0058C44.5799 24.768 45.0942 24.3981 45.5 23.9377M42 59.5V98M42 59.5V53.5M42 36V53.5M42 98H50M42 98C42 94 44.6667 93 46 93C48.2091 93 50 94.7909 50 97M42 98H34.5582M42 98C42 94.3711 39.5194 93.4639 38.2791 93.4639C36.2241 93.4639 34.5582 95.0886 34.5582 97.0928M50 98V97M50 98H58M50 97C50 94.7909 51.7909 93 54 93C55.3333 93 58 94 58 98M50 97C49.8992 96.2 49.958 73.3333 50 62M53.5 18V21.2919C53.5 22.2874 53.8689 23.2218 54.5 23.9377M58 59.5H59.5C61.7091 59.5 63.5 57.7091 63.5 55.5V32.0622C63.5 29.6088 62.0063 27.4025 59.7283 26.4913L56.0144 25.0058C55.4201 24.768 54.9058 24.3981 54.5 23.9377M58 59.5V98M58 59.5V53.5M58 36V53.5M58 98H65.4418M58 98C58 94.3711 60.4806 93.4639 61.7209 93.4639C63.7759 93.4639 65.4418 95.0886 65.4418 97.0928M43 9.25959V13.5192C43 14.9209 43.7337 16.2204 44.934 16.9443L47.934 18.7539C49.2047 19.5203 50.7953 19.5203 52.066 18.7539L55.066 16.9443C56.2663 16.2204 57 14.9209 57 13.5192V9.25958M43 9.25959V5C43 2.79086 44.7909 1 47 1H53C55.2091 1 57 2.79086 57 5V9.25958M43 9.25959L48.5 6.5L57 9.25958M54.5 23.9377C53.3789 24.2798 52.4118 24.5123 51.4999 24.6353M45.5 23.9377C46.621 24.2798 47.5882 24.5123 48.5 24.6353M48.5 24.6353L46 41L50 44L54 41L51.4999 24.6353M48.5 24.6353C49.5232 24.7732 50.4767 24.7732 51.4999 24.6353M42 53.5H58M16.8889 30.3711V33.1539C16.8889 33.9955 16.561 34.7854 16 35.3906M12.8889 65.4536H11.5556C9.59188 65.4536 8 63.9397 8 62.0722V42.2588C8 40.1847 9.32774 38.3197 11.3526 37.5494L14.6538 36.2935C15.1821 36.0926 15.6393 35.7798 16 35.3906M12.8889 65.4536V98M12.8889 65.4536V60.3814M12.8889 45.5876V60.3814M12.8889 98H20M12.8889 98C12.8889 94.6186 15.2593 93.7732 16.4444 93.7732C18.4081 93.7732 20 95.2871 20 97.1546M20 98V97.1546M20 98H27M20 97.1546C20 95.2871 21.5919 93.7732 23.5556 93.7732C24.7407 93.7732 27 94.6186 27 98M20 97.1546C19.9104 96.4784 19.9627 77.1478 20 67.567M23.1111 30.3711V32.282C23.1111 32.8386 23.209 33.4007 23.5047 33.8723C23.5713 33.9785 23.6401 34.0771 23.7068 34.1555M27 98V63.0722M27 98H34.5582M27 98C27 94.3711 29.597 93.4639 30.8373 93.4639C32.8923 93.4639 34.5582 95.0886 34.5582 97.0928M13.7778 22.9823V26.5832C13.7778 27.7682 14.43 28.8667 15.4969 29.4787L18.1636 31.0084C19.2931 31.6563 20.7069 31.6563 21.8364 31.0084L24.5031 29.4787C25.57 28.8667 26.2222 27.7682 26.2222 26.5832V22.9823M13.7778 22.9823V19.3814C13.7778 17.5139 15.3697 16 17.3333 16H22.6667C24.6303 16 26.2222 17.5139 26.2222 19.3814V22.9823M13.7778 22.9823L18.6667 20.6495L26.2222 22.9823M16 35.3906C16.9965 35.6798 17.8561 35.8764 18.6667 35.9803C19.5762 36.097 21.4413 36.1166 22.3508 36M12.8889 60.3814H22M83.1111 30.3711V33.1539C83.1111 33.9955 83.439 34.7854 84 35.3906M87.1111 65.4536H88.4444C90.4081 65.4536 92 63.9397 92 62.0722V42.2588C92 40.1847 90.6723 38.3197 88.6474 37.5494L85.3462 36.2935C84.8179 36.0926 84.3607 35.7798 84 35.3906M87.1111 65.4536V98M87.1111 65.4536V60.3814M87.1111 45.5876V60.3814M87.1111 98H80M87.1111 98C87.1111 94.6186 84.7407 93.7732 83.5556 93.7732C81.5919 93.7732 80 95.2871 80 97.1546M80 98V97.1546M80 98H73M80 97.1546C80 95.2871 78.4081 93.7732 76.4444 93.7732C75.2593 93.7732 73 94.6186 73 98M80 97.1546C80.0896 96.4784 80.0373 77.1478 80 67.567M76.8889 30.3711V32.7772C76.8889 33.0278 76.8715 33.2801 76.7915 33.5176C76.7026 33.7815 76.5614 34.0802 76.3689 34.2241M73 98V63.0722M73 98H65.4418M73 98C73 94.3711 70.403 93.4639 69.1627 93.4639C67.1077 93.4639 65.4418 95.0886 65.4418 97.0928M86.2222 22.9823V26.5832C86.2222 27.7682 85.57 28.8667 84.5031 29.4787L81.8364 31.0084C80.7069 31.6563 79.2931 31.6563 78.1636 31.0084L75.4969 29.4787C74.43 28.8667 73.7778 27.7682 73.7778 26.5832V22.9823M86.2222 22.9823V19.3814C86.2222 17.5139 84.6303 16 82.6667 16H77.3333C75.3697 16 73.7778 17.5139 73.7778 19.3814V22.9823M86.2222 22.9823L81.3333 20.6495L73.7778 22.9823M84 35.3906C83.0035 35.6798 82.1439 35.8764 81.3333 35.9803C80.4238 36.097 78.5499 36.097 77.6404 35.9803M87.1111 60.3814H78M31.3024 25.4227V28.4091C31.3024 29.3122 30.9592 30.16 30.3721 30.8095M27 63.0722H25.6047C23.5496 63.0722 21.8837 61.4475 21.8837 59.4433V38.1801C21.8837 36.6189 22.5673 35.168 23.7068 34.1555M27 63.0722V57.6289M27 41.7526V57.6289M34.5582 98V97.0928M34.5582 97.0928C34.4644 96.367 34.5191 75.622 34.5582 65.3402M37.814 25.4227V28.4091M28.0466 17.4932V21.3576C28.0466 22.6293 28.7291 23.8082 29.8457 24.465L32.6364 26.1066C33.8184 26.8019 35.298 26.8019 36.48 26.1066L39.2707 24.465C40.3873 23.8082 41.0698 22.6293 41.0698 21.3576V17.4932M28.0466 17.4932V13.6289C28.0466 11.6247 29.7125 10 31.7675 10H37.3489C39.4039 10 41.0698 11.6247 41.0698 13.6289V17.4932M28.0466 17.4932L33.1628 14.9897L41.0698 17.4932M30.3721 30.8095C29.9946 31.2271 29.5162 31.5628 28.9634 31.7784L25.3922 33.1262C24.7595 33.373 24.1919 33.7245 23.7068 34.1555M30.3721 30.8095C31.415 31.1198 32.3146 31.3308 33.1628 31.4423C34.1146 31.5675 35.5802 31.5675 36.532 31.4423M27 57.6289H36.6512M68.6976 25.4227V28.4091C68.6976 29.3122 69.0408 30.16 69.6279 30.8095M73 63.0722H74.3953C76.4504 63.0722 78.1163 61.4475 78.1163 59.4433V38.1801C78.1163 36.6538 77.4629 35.233 76.3689 34.2241M73 63.0722V57.6289M73 41.7526V57.6289M65.4418 98V97.0928M65.4418 97.0928C65.5356 96.367 65.4809 75.622 65.4418 65.3402M62.186 25.4227V28.4091M71.9534 17.4932V21.3576C71.9534 22.6293 71.2709 23.8082 70.1543 24.465L67.3636 26.1066C66.1816 26.8019 64.702 26.8019 63.52 26.1066L60.7293 24.465C59.6127 23.8082 58.9302 22.6293 58.9302 21.3576V17.4932M71.9534 17.4932V13.6289C71.9534 11.6247 70.2875 10 68.2325 10H62.6511C60.5961 10 58.9302 11.6247 58.9302 13.6289V17.4932M71.9534 17.4932L66.8372 14.9897L58.9302 17.4932M69.6279 30.8095C70.0054 31.2271 70.4838 31.5628 71.0366 31.7784L74.6078 33.1262C75.2737 33.3859 75.8676 33.7618 76.3689 34.2241M69.6279 30.8095C68.585 31.1198 67.6854 31.3308 66.8372 31.4423C65.8854 31.5675 64.4198 31.5675 63.468 31.4423M73 57.6289H63.3488" stroke="black" stroke-width="2"/>
</svg>
