<svg width="100" height="100" viewBox="0 0 100 100" fill="none" xmlns="http://www.w3.org/2000/svg">
<mask id="path-1-inside-1" fill="white">
<path d="M81.6667 41.6666H88.3334V65H81.6667V41.6666Z"/>
</mask>
<path d="M81.6667 41.6666H88.3334V65H81.6667V41.6666Z" fill="#FF7956"/>
<path d="M81.6667 41.6666V33.6666H73.6667V41.6666H81.6667ZM88.3334 41.6666H96.3334V33.6666H88.3334V41.6666ZM88.3334 65V73H96.3334V65H88.3334ZM81.6667 65H73.6667V73H81.6667V65ZM81.6667 49.6666H88.3334V33.6666H81.6667V49.6666ZM80.3334 41.6666V65H96.3334V41.6666H80.3334ZM88.3334 57H81.6667V73H88.3334V57ZM89.6667 65V41.6666H73.6667V65H89.6667Z" fill="#FEB104" mask="url(#path-1-inside-1)"/>
<mask id="path-3-inside-2" fill="white">
<path d="M70 45H76.6667V65H70V45Z"/>
</mask>
<path d="M70 45H76.6667V65H70V45Z" fill="#FFDE55"/>
<path d="M70 45V37H62V45H70ZM76.6667 45H84.6667V37H76.6667V45ZM76.6667 65V73H84.6667V65H76.6667ZM70 65H62V73H70V65ZM70 53H76.6667V37H70V53ZM68.6667 45V65H84.6667V45H68.6667ZM76.6667 57H70V73H76.6667V57ZM78 65V45H62V65H78Z" fill="#FEB104" mask="url(#path-3-inside-2)"/>
<mask id="path-5-inside-3" fill="white">
<path d="M18.75 37.5H26.5625C26.5625 39.0452 26.1043 40.5556 25.2459 41.8404C24.3874 43.1251 23.1673 44.1265 21.7397 44.7178C20.3122 45.3091 18.7413 45.4638 17.2259 45.1624C15.7104 44.8609 14.3183 44.1169 13.2257 43.0243C12.1331 41.9317 11.3891 40.5396 11.0876 39.0241C10.7862 37.5087 10.9409 35.9378 11.5322 34.5103C12.1235 33.0827 13.1249 31.8626 14.4096 31.0041C15.6944 30.1457 17.2048 29.6875 18.75 29.6875V37.5Z"/>
</mask>
<path d="M18.75 37.5H26.5625C26.5625 39.0452 26.1043 40.5556 25.2459 41.8404C24.3874 43.1251 23.1673 44.1265 21.7397 44.7178C20.3122 45.3091 18.7413 45.4638 17.2259 45.1624C15.7104 44.8609 14.3183 44.1169 13.2257 43.0243C12.1331 41.9317 11.3891 40.5396 11.0876 39.0241C10.7862 37.5087 10.9409 35.9378 11.5322 34.5103C12.1235 33.0827 13.1249 31.8626 14.4096 31.0041C15.6944 30.1457 17.2048 29.6875 18.75 29.6875V37.5Z" fill="#FFDE55"/>
<path d="M18.75 37.5H10.75V45.5H18.75V37.5ZM26.5625 37.5H34.5625V29.5H26.5625V37.5ZM18.75 29.6875H26.75V21.6875H18.75V29.6875ZM18.75 45.5H26.5625V29.5H18.75V45.5ZM18.5625 37.5C18.5625 37.4629 18.5735 37.4267 18.5941 37.3958L31.8976 46.2849C33.6351 43.6846 34.5625 40.6274 34.5625 37.5H18.5625ZM18.5941 37.3958C18.6147 37.365 18.644 37.341 18.6783 37.3268L24.8012 52.1088C27.6905 50.912 30.1601 48.8853 31.8976 46.2849L18.5941 37.3958ZM18.6783 37.3268C18.7125 37.3126 18.7502 37.3089 18.7866 37.3161L15.6651 53.0087C18.7325 53.6188 21.9118 53.3056 24.8012 52.1088L18.6783 37.3268ZM18.7866 37.3161C18.823 37.3233 18.8564 37.3412 18.8826 37.3674L7.56888 48.6811C9.7803 50.8925 12.5978 52.3985 15.6651 53.0087L18.7866 37.3161ZM18.8826 37.3674C18.9088 37.3936 18.9267 37.427 18.9339 37.4634L3.24134 40.5849C3.85147 43.6522 5.35746 46.4697 7.56888 48.6811L18.8826 37.3674ZM18.9339 37.4634C18.9411 37.4998 18.9374 37.5375 18.9232 37.5718L4.14116 31.4488C2.94435 34.3382 2.63121 37.5175 3.24134 40.5849L18.9339 37.4634ZM18.9232 37.5718C18.909 37.606 18.885 37.6353 18.8542 37.6559L9.96505 24.3524C7.3647 26.0899 5.33797 28.5595 4.14116 31.4488L18.9232 37.5718ZM18.8542 37.6559C18.8233 37.6765 18.7871 37.6875 18.75 37.6875V21.6875C15.6226 21.6875 12.5654 22.6149 9.96505 24.3524L18.8542 37.6559ZM10.75 29.6875V37.5H26.75V29.6875H10.75Z" fill="#FEB104" mask="url(#path-5-inside-3)"/>
<mask id="path-7-inside-4" fill="white">
<path d="M58.3333 51.6666H64.9999V65H58.3333V51.6666Z"/>
</mask>
<path d="M58.3333 51.6666H64.9999V65H58.3333V51.6666Z" fill="#00D7DF"/>
<path d="M58.3333 51.6666V43.6666H50.3333V51.6666H58.3333ZM64.9999 51.6666H72.9999V43.6666H64.9999V51.6666ZM64.9999 65V73H72.9999V65H64.9999ZM58.3333 65H50.3333V73H58.3333V65ZM58.3333 59.6666H64.9999V43.6666H58.3333V59.6666ZM56.9999 51.6666V65H72.9999V51.6666H56.9999ZM64.9999 57H58.3333V73H64.9999V57ZM66.3333 65V51.6666H50.3333V65H66.3333Z" fill="#FEB104" mask="url(#path-7-inside-4)"/>
<path d="M65 19C65 17.0302 64.612 15.0796 63.8582 13.2597C63.1044 11.4399 61.9995 9.78628 60.6066 8.3934C59.2137 7.00052 57.5601 5.89563 55.7403 5.14181C53.9204 4.38799 51.9698 4 50 4L50 19H65Z" fill="#FEB104"/>
<circle cx="50" cy="19" r="15" stroke="black" stroke-width="2"/>
<path d="M65 19H50V4" stroke="black" stroke-width="2"/>
<path d="M5 70.5V76C5 78.2091 6.79086 80 9 80H40.5M5 70.5V26C5 23.7909 6.79086 22 9 22H35.5M5 70.5H95M95 70.5V26C95 23.7909 93.2091 22 91 22H64.5M95 70.5V76C95 78.2091 93.2091 80 91 80H59.5M40.5 80H59.5M40.5 80V87M59.5 80V87M40.5 87V89H59.5V87M40.5 87H35.3641C34.8127 87 34.2857 87.2277 33.9077 87.6293L29.6725 92.1293C28.4712 93.4056 29.3761 95.5 31.1289 95.5H68.8711C70.6239 95.5 71.5288 93.4056 70.3275 92.1293L66.0923 87.6293C65.7143 87.2277 65.1873 87 64.6359 87H59.5" stroke="black" stroke-width="2"/>
<path d="M43 14L31 5H19M15 5H9M31 11H27.5M23.5 11H9M9 17H15M18.5 17H31" stroke="black" stroke-width="2"/>
<path d="M56.5 14L68.5 5H80.5M84.5 5H90.5M68.5 11H72M76 11H90.5M90.5 17H84.5M81 17H68.5" stroke="black" stroke-width="2"/>
<path d="M56.5 44.5H64.5L68 38H77.5L82 29H90.5M50 38H37.5M35 38H31.5M50 44.5H31.5M50 51H21M17 51H11M11 57.5H34M37.5 57.5H50M50 64H28M24.5 64H11" stroke="black" stroke-width="2"/>
</svg>
