<svg width="100" height="100" viewBox="0 0 100 100" fill="none" xmlns="http://www.w3.org/2000/svg">
<path d="M30 38.3333V3.33325H72.5V19.4444H93.6111L85.8333 34.4444L93.6111 49.7221H57.7777V38.3333H30Z" fill="#FEB104"/>
<path d="M30 56.5H42.5M30 56.5C26.5 56.5 21.4 56.7 19 63.5M30 56.5V51M42.5 56.5V38.5M42.5 56.5H46.5C52.5 56.5 52.5 63.5 46.5 63.5C52.5 63.5 52.5 70.5 46.5 70.5C52.5 70.5 52.5 77.5 46.5 77.5C52.5 77.5 52 85 46.5 85H42.5M42.5 38.5H30M42.5 38.5H57.5M30 38.5V3H72.5V19.5M30 38.5V51M47.5 14H53V29M57.5 38.5H72.5V19.5M57.5 38.5V50H93.5L85.5 34.5L93.5 19.5H72.5M19 63.5C16.6 70.3 9.33333 89.3333 6 98H29M19 63.5C20.5 59.3333 24.8 51 30 51M29 98L34.5 85H42.5M29 98H42.5V85" stroke="black" stroke-width="2"/>
</svg>
