<svg width="100" height="100" viewBox="0 0 100 100" fill="none" xmlns="http://www.w3.org/2000/svg">
<path d="M46.0525 32.9999L38.4867 31.9081L44.4077 19.737L52.3025 12.8291L61.842 9.21069L74.342 10.5265L81 14.4999L67 26.9999L60 20.4999L49 23.9999L46.0525 32.9999Z" fill="#FEB104"/>
<path d="M51.5 49.9999L47 40.4999L63.5 30.9999L69 38.9999H80L84.5 30.9999L91.1183 32.9999L90 43.4999L83.5 53.4999L75.3288 51.9739L65.4604 54.6054L59.5 60.5265L47.6972 54.6054L51.5 49.9999Z" fill="#FEB104"/>
<path d="M36.7321 53.7653C35.7755 54.3176 34.5523 53.9899 34 53.0333L31.5034 48.709C30.3641 48.9004 29.1937 49 28 49C26.5286 49 25.0926 48.8486 23.7066 48.5607L21.1244 53.0333C20.5721 53.9899 19.3489 54.3176 18.3923 53.7653L9.73205 48.7653C8.77547 48.2131 8.44771 46.9899 9 46.0333L11.739 41.2893C10.2188 39.4314 9.01083 37.3083 8.19494 35H3C1.89543 35 1 34.1045 1 33L1 23C1 21.8954 1.89543 21 3 21H8.19494C9.02502 18.6514 10.261 16.4947 11.8186 14.6139L9.00003 9.73202C8.44774 8.77544 8.7755 7.55226 9.73208 6.99997L18.3923 1.99997C19.3489 1.44769 20.5721 1.77544 21.1244 2.73202L23.8278 7.41442C25.1762 7.14261 26.5715 6.99996 28 6.99996C29.1505 6.99996 30.2794 7.09249 31.3797 7.2705L34 2.73202C34.5523 1.77544 35.7755 1.44769 36.7321 1.99997L45.3923 6.99997C39.3062 11.4 36.1498 16.5 35.3324 18.5C33.3046 16.9326 30.7612 16 28 16C21.3726 16 16 21.3726 16 28C16 34.6274 21.3726 40 28 40C29.1735 40 30.3077 39.8315 31.3797 39.5175C32.0835 46.3315 35.2412 51.8552 36.7321 53.7653Z" fill="#FEB104"/>
<path d="M90.1244 84.3016C90.6767 85.2582 90.3489 86.4814 89.3923 87.0337L80.7321 92.0337C79.7755 92.5859 78.5523 92.2582 78 91.3016L75.5034 86.9773C74.3641 87.1687 73.1937 87.2683 72 87.2683C70.5286 87.2683 69.0926 87.117 67.7066 86.829L65.1244 91.3016C64.5721 92.2582 63.3489 92.5859 62.3923 92.0337L53.7321 87.0337C52.7755 86.4814 52.4477 85.2582 53 84.3016L55.739 79.5576C54.2188 77.6997 53.0108 75.5766 52.1949 73.2683H47C45.8954 73.2683 45 72.3728 45 71.2683V67.5L48 64.5C51.5 67 56.0415 68.0122 60.3123 69C61.5488 74.3113 66.3123 78.2683 72 78.2683C78.6274 78.2683 84 72.8957 84 66.2683C84 65.3155 83.889 64.3887 83.6791 63.5C85.8523 61.8333 90.3288 58.2 90.8493 57C91.2104 57.733 91.53 58.4901 91.8051 59.2683H97C98.1046 59.2683 99 60.1637 99 61.2683V71.2683C99 72.3728 98.1046 73.2683 97 73.2683H91.8051C90.8979 75.8348 89.5061 78.1723 87.7395 80.1708L90.1244 84.3016Z" fill="#FEB104"/>
<path d="M36.7321 53.7653C35.7755 54.3176 34.5523 53.9899 34 53.0333L31.5034 48.709C30.3641 48.9004 29.1937 49 28 49C26.5286 49 25.0926 48.8486 23.7066 48.5607L21.1244 53.0333C20.5721 53.9899 19.3489 54.3176 18.3923 53.7653L9.73205 48.7653C8.77547 48.2131 8.44771 46.9899 9 46.0333L11.739 41.2893C10.2188 39.4314 9.01083 37.3083 8.19494 35H3C1.89543 35 1 34.1045 1 33L1 23C1 21.8954 1.89543 21 3 21H8.19494C9.02502 18.6514 10.261 16.4947 11.8186 14.6139L9.00003 9.73202C8.44774 8.77544 8.7755 7.55226 9.73208 6.99997L18.3923 1.99997C19.3489 1.44769 20.5721 1.77544 21.1244 2.73202L23.8278 7.41442C25.1762 7.14261 26.5715 6.99996 28 6.99996C29.1505 6.99996 30.2794 7.09249 31.3797 7.2705L34 2.73202C34.5523 1.77544 35.7755 1.44769 36.7321 1.99997L45.3923 6.99997M35.3324 18.5C33.3046 16.9326 30.7612 16 28 16C21.3726 16 16 21.3726 16 28C16 34.6274 21.3726 40 28 40C29.0198 40 30.0099 39.8728 30.9552 39.6334" stroke="black" stroke-width="2"/>
<path d="M45 68V71.2683C45 72.3728 45.8954 73.2683 47 73.2683H52.1949C53.0108 75.5766 54.2188 77.6997 55.739 79.5576L53 84.3016C52.4477 85.2582 52.7755 86.4814 53.7321 87.0337L62.3923 92.0337C63.3489 92.5859 64.5721 92.2582 65.1244 91.3016L67.7066 86.829C69.0926 87.117 70.5286 87.2683 72 87.2683C73.1937 87.2683 74.3641 87.1687 75.5034 86.9773L78 91.3016C78.5523 92.2582 79.7755 92.5859 80.7321 92.0337L89.3923 87.0337C90.3489 86.4814 90.6767 85.2582 90.1244 84.3016L87.7395 80.1708C89.5061 78.1723 90.8979 75.8348 91.8051 73.2683H97C98.1046 73.2683 99 72.3728 99 71.2683V61.2683C99 60.1637 98.1046 59.2683 97 59.2683H91.8051C91.53 58.4901 91.2104 57.733 90.8493 57M60.3123 69C61.5488 74.3113 66.3123 78.2683 72 78.2683C78.6274 78.2683 84 72.8957 84 66.2683C84 65.3155 83.889 64.3887 83.6791 63.5" stroke="black" stroke-width="2"/>
<path d="M48.1287 55C49.113 53.1148 50.2877 51.346 51.6269 49.7192L47.5556 42.6253C46.7579 41.2353 47.2313 39.4579 48.613 38.6553L61.1223 31.3898C62.504 30.5873 64.2708 31.0636 65.0686 32.4536L68.9735 39.2576C70.9212 38.8626 72.9366 38.6553 75 38.6553C76.6619 38.6553 78.2925 38.7898 79.8818 39.0484L83.6667 32.4536C84.4644 31.0636 86.2312 30.5873 87.613 31.3898L91 33.3571M59.6834 61C62.5952 55.4872 68.3618 51.7333 75 51.7333C77.8857 51.7333 80.6067 52.4427 83 53.6976" stroke="black" stroke-width="2"/>
<path d="M39 31.4106L43.8356 32.7197C45.3779 33.1373 46.9613 32.22 47.3721 30.6708L49.2928 23.4278C51.3348 23.3138 53.3954 22.9893 55.4483 22.4392C57.1137 21.993 58.7093 21.4156 60.2269 20.7211L65.3366 25.8573C66.4669 26.9934 68.2968 26.9962 69.4237 25.8634L79.6263 15.6078C79.9474 15.285 80.1767 14.9049 80.3145 14.5" stroke="black" stroke-width="2"/>
<circle cx="64.8492" cy="35.1509" r="34" transform="rotate(45 64.8492 35.1509)" stroke="black" stroke-width="2"/>
<circle cx="64.8492" cy="35.1507" r="26" transform="rotate(45 64.8492 35.1507)" stroke="black" stroke-width="2"/>
<rect x="22.4229" y="64.8494" width="18" height="32" rx="4" transform="rotate(45 22.4229 64.8494)" stroke="black" stroke-width="2"/>
<path d="M35.1508 52.1213L32.3223 54.9498C30.7602 56.5119 30.7602 59.0445 32.3223 60.6066L39.3934 67.6777C40.9555 69.2398 43.4882 69.2398 45.0503 67.6777L47.8787 64.8493" stroke="black" stroke-width="2"/>
<path d="M32.3223 60.6067L25.2513 67.6778M39.3934 67.6778L32.3223 74.7489M6.15954 81.1127L18.8875 93.8406" stroke="black" stroke-width="2"/>
</svg>
