<svg width="100" height="100" viewBox="0 0 100 100" fill="none" xmlns="http://www.w3.org/2000/svg">
<rect x="8" y="19" width="26" height="22" fill="#FEB104"/>
<path d="M50 73C50 85.7025 60.2975 96 73 96C85.7025 96 96 85.7025 96 73C96 60.2975 85.7025 50 73 50M50 73C50 60.2975 60.2975 50 73 50M50 73H2.5V13.5H78M73 50V61.5M63 78.75L53 84.5M82.75 78.75L92.5 84.5M87.5 55V22.5M47 33.3542C46.2671 32.5238 45.1947 32 44 32C41.7909 32 40 33.7909 40 36C40 38.2091 41.7909 40 44 40C46.2091 40 48 38.2091 48 36C48 34.9856 47.6224 34.0593 47 33.3542ZM47 33.3542L54.5 26.1227M54.5 26.1227C55.1848 26.6716 56.0541 27 57 27C58.1947 27 59.2671 26.4762 60 25.6458M54.5 26.1227C53.5855 25.3896 53 24.2632 53 23C53 20.7909 54.7909 19 57 19C59.2091 19 61 20.7909 61 23C61 24.0144 60.6224 24.9407 60 25.6458M60 25.6458L64.3542 30M64.3542 30C63.5238 30.7329 63 31.8053 63 33C63 35.2091 64.7909 37 67 37C69.2091 37 71 35.2091 71 33C71 31.8053 70.4762 30.7329 69.6458 30M64.3542 30C65.0593 29.3776 65.9856 29 67 29C68.0144 29 68.9407 29.3776 69.6458 30M69.6458 30L80.5718 19M80.5718 19C82.3048 20.8465 84.7677 22 87.5 22C92.7467 22 97 17.7467 97 12.5C97 7.25329 92.7467 3 87.5 3C82.2533 3 78 7.25329 78 12.5C78 15.0144 78.9769 17.3007 80.5718 19ZM9 54H15V68H9V54ZM20 57H26V68H20V57ZM31 46H37V68H31V46ZM42 52H48V68H42V52Z" stroke="black" stroke-width="2"/>
<path d="M73 85C79.6274 85 85 79.6274 85 73C85 66.3726 79.6274 61 73 61C66.3726 61 61 66.3726 61 73C61 79.6274 66.3726 85 73 85Z" stroke="#FEB104" stroke-width="8"/>
<circle cx="73" cy="73" r="8" stroke="black" stroke-width="2"/>
<path d="M12 20H8" stroke="black" stroke-width="2"/>
<path d="M12 25H8" stroke="black" stroke-width="2"/>
<path d="M12 30H8" stroke="black" stroke-width="2"/>
<path d="M12 35H8" stroke="black" stroke-width="2"/>
<path d="M12 40H8" stroke="black" stroke-width="2"/>
<path d="M34 20H14" stroke="black" stroke-width="2"/>
<path d="M34 25H14" stroke="black" stroke-width="2"/>
<path d="M34 30H14" stroke="black" stroke-width="2"/>
<path d="M34 35H14" stroke="black" stroke-width="2"/>
<path d="M34 40H14" stroke="black" stroke-width="2"/>
</svg>
