<svg width="100" height="100" viewBox="0 0 100 100" fill="none" xmlns="http://www.w3.org/2000/svg">
<path d="M30.9999 5.33325C18.3333 5.33325 15.4259 15.1481 15.0555 20.0555L10.7222 21.1666V26.7221H50.4444V21.1666L47.6666 20.0555C47.3888 15.1481 43.6666 5.33325 30.9999 5.33325Z" fill="#FEB104"/>
<path d="M5.00001 71.5C7.22224 57.5 18.7777 51.9073 24.3333 50.8888V84.7777L28.3888 86.4444V91.9999H25.3333V98.3888H14.0555V91.5C10.074 90.4815 2.77779 85.5 5.00001 71.5Z" fill="#FEB104"/>
<path d="M37.111 86.4444V50.8888C44.8888 51.7777 51.8332 59.4073 54.3332 63.111V77.5555H45.8888C47.6666 85.9999 53.9629 86.9999 57.3888 86.4444V98.3888H37.111V93.3888C38.5925 92.9258 42.4999 91.4444 42.2777 89.2221C42.0555 86.9999 38.4073 86.4444 37.111 86.4444Z" fill="#FEB104"/>
<path d="M43 27V40M43 40C43 43.3137 40.3137 46 37 46H25C21.6863 46 19 43.3137 19 40M43 40C45.934 40 48 37.9853 48 35.5M19 40V27M19 40C16.066 40 14 37.9853 14 35.5M14 21C14 11.6112 21.6112 5 31 5C40.3888 5 48 11.6112 48 21M14 35.5C14 33.0147 16.066 31 19 31M14 35.5V27M48 35.5C48 33.0147 45.934 31 43 31M48 35.5V27M28 6V20.5M34 6V20.5M26 46L24.5 50.5M24.5 50.5C19.6667 51.5 9.2 56.2 6 67C2.8 77.8 5.33333 84.1667 7 86C8.04016 87.3522 10.3527 89.5483 13.5 91.0083M24.5 50.5V68.1538M24.5 50.5L30.75 59.3269M37 86.5H38.5C42.5 86.5 42.5 92.5 38.5 92.5H37M37 86.5C37.0355 86.2515 37.0423 85.95 37 85.6295M37 86.5V85.6295M37 85.6295C36.8438 84.4452 36.0184 83 33.5 83C30.3 83 28.1667 85.3333 27.5 86.5M37 85.6295V68.1538M27.5 86.5L24.5 85.8077M27.5 86.5V92.5M13.5 69.5V76.5C13.5 81.7 18.5 84.3333 21 85L24.5 85.8077M24.5 85.8077V68.1538M24.5 92.5H20C17.5942 92.5 15.3957 91.8877 13.5 91.0083M24.5 92.5V99M24.5 92.5H27.5M24.5 99H13.5V91.0083M24.5 99H37M57 86.5V99H48M57 86.5H65M57 86.5C54.5785 86.3991 50.691 85.5775 48 83.3473M78 86.5H86.5C94.1 86.5 97 80.1667 97.5 77H91.5M78 86.5C78 85.3333 77.1 83 73.5 83H68.5C67.3333 83 65 83.7 65 86.5M78 86.5C78 88.5 76.7 92.5 71.5 92.5C66.3 92.5 65 88.5 65 86.5M91.5 77L97.5 62.5M91.5 77H88.5M51 77H45C45 79.8413 46.2458 81.8935 48 83.3473M51 77L45 62.5M51 77H54M54 77H73M54 77V64.5M73 77V58M73 77H88.5M73 58V52H60.5M73 58H85.5M88.5 77V58H85.5M60.5 52H54V64.5M60.5 52V33.5H66.5M85.5 58V33.5H79.5M73 23V33.5M73 33.5H66.5M73 33.5H79.5M66.5 33.5V26M79.5 33.5V26M65.5 39.5H80.5M65.5 46H80.5M80.5 52H76.5M77.5 64.5H84M77.5 70.5H84M68 56.5V72M59 56.5V72M63.5 56.5V72M36 46L37 50.5M37 50.5C41.3333 51.5 50.8 55.7 54 64.5M37 50.5L30.75 59.3269M37 50.5V68.1538M24.5 68.1538L30.75 59.3269M30.75 59.3269L37 68.1538M27.5 92.5H37M37 92.5V99M37 99H48M48 83.3473V99M12 27H49C50.1046 27 51 26.1046 51 25V23C51 21.8954 50.1046 21 49 21H12C10.8954 21 10 21.8954 10 23V25C10 26.1046 10.8954 27 12 27Z" stroke="black" stroke-width="2" stroke-linecap="round" stroke-linejoin="round"/>
</svg>
