<svg width="100" height="100" viewBox="0 0 100 100" fill="none" xmlns="http://www.w3.org/2000/svg">
<rect x="36" y="54" width="28" height="6" rx="2" fill="#FEB104"/>
<rect x="36" y="39" width="28" height="6" rx="2" fill="#FEB104"/>
<rect x="30" y="29" width="40" height="10" rx="2" stroke="black" stroke-width="2"/>
<rect x="30" y="45" width="40" height="10" rx="2" stroke="black" stroke-width="2"/>
<rect x="30" y="61" width="40" height="10" rx="2" stroke="black" stroke-width="2"/>
<rect x="3" y="78" width="28" height="20" stroke="black" stroke-width="2"/>
<rect x="69" y="3" width="28" height="20" stroke="black" stroke-width="2"/>
<rect x="73" y="8" width="20" height="10" fill="#FEB104"/>
<rect x="9" y="45" width="6" height="10" fill="#FEB104"/>
<rect x="86" y="45" width="6" height="10" fill="#FEB104"/>
<rect x="85" y="83" width="6" height="10" fill="#FEB104"/>
<rect x="7" y="83" width="20" height="10" fill="#FEB104"/>
<rect x="81" y="40" width="16" height="20" stroke="black" stroke-width="2"/>
<circle cx="12" cy="50" r="10" stroke="black" stroke-width="2"/>
<circle cx="88" cy="88" r="10" stroke="black" stroke-width="2"/>
<path d="M4 13.5115L17.0114 3L30 13.4885L16.9886 24L4 13.5115Z" stroke="black" stroke-width="2"/>
<path d="M30 13.5H39C42.3137 13.5 45 16.1863 45 19.5V29M45 71V82.5C45 85.8137 42.3137 88.5 39 88.5H31" stroke="black" stroke-width="2"/>
<path d="M69 14H60C56.6863 14 54 16.6863 54 20V29.5M54 71.5V83C54 86.3137 56.6863 89 60 89H78" stroke="black" stroke-width="2"/>
<path d="M22 50H30" stroke="black" stroke-width="2"/>
<path d="M13 14H21" stroke="black" stroke-width="2"/>
<path d="M70 50H81" stroke="black" stroke-width="2"/>
<path d="M73 9H93" stroke="black" stroke-width="2"/>
<path d="M9 46H15" stroke="black" stroke-width="2"/>
<path d="M86 46H92" stroke="black" stroke-width="2"/>
<path d="M85 84H91" stroke="black" stroke-width="2"/>
<path d="M7 84H12" stroke="black" stroke-width="2"/>
<path d="M14 84H19" stroke="black" stroke-width="2"/>
<path d="M21 84H27" stroke="black" stroke-width="2"/>
<path d="M73 17H93" stroke="black" stroke-width="2"/>
<path d="M9 54H15" stroke="black" stroke-width="2"/>
<path d="M86 54H92" stroke="black" stroke-width="2"/>
<path d="M85 92H91" stroke="black" stroke-width="2"/>
<path d="M7 92H27" stroke="black" stroke-width="2"/>
<path d="M73 13H93" stroke="black" stroke-width="2"/>
<path d="M9 50H15" stroke="black" stroke-width="2"/>
<path d="M86 50H92" stroke="black" stroke-width="2"/>
<path d="M85 88H91" stroke="black" stroke-width="2"/>
<path d="M7 88H27" stroke="black" stroke-width="2"/>
</svg>
