<svg width="100" height="100" viewBox="0 0 100 100" fill="none" xmlns="http://www.w3.org/2000/svg">
<path d="M5.10864 72.3803L11.4343 60.2791H51.8633H88.442L94.4926 72.3803H88.442V97.4078H51.8633H11.4343V72.3803H5.10864Z" fill="#FEB104" stroke="#565656" stroke-width="0.552807"/>
<rect x="17.4849" y="78.981" width="27.5028" height="12.1012" fill="white"/>
<path d="M30.0988 60C30.0334 59.3422 30 58.675 30 58C30 46.9543 38.9543 38 50 38C61.0369 38 69.9858 46.9401 70 57.9737L70 60M30.0988 60H41.223M30.0988 60H20M41.223 60C41.0771 59.3568 41 58.6874 41 58C41 53.0294 45.0294 49 50 49C54.9706 49 59 53.0294 59 58C59 58.6874 58.9229 59.3568 58.777 60M41.223 60H50M58.777 60H53M58.777 60H70M20 60V53H24.4803C25.1552 49.5354 26.5181 46.3167 28.4209 43.492L25.2512 40.3223L32.3223 33.2512L35.492 36.4209C38.3167 34.5181 41.5354 33.1552 45 32.4803V28H55V32.4803C58.4646 33.1552 61.6832 34.518 64.5079 36.4209L67.6776 33.2512L70 35.5736M20 60H11.5L5 72.508L11.5 72.508M80 60V53H75.5197C74.8448 49.5354 73.4819 46.3167 71.579 43.4919L74.7487 40.3223L70 35.5736M80 60H88.5L94.5 72.508H88.5M80 60H70M51.5 97H11.5V72.508M51.5 97H88.5V72.508M51.5 97V60M11.5 72.508L44 72.5079L50 60M88.5 72.508H59L53 60M69 85H83M69 91H83M40.5 85H22M50 60H51.5M51.5 60H53M46 14C46 19.5228 41.5228 24 36 24C30.4772 24 26 19.5228 26 14C26 8.47715 30.4772 4 36 4C41.5228 4 46 8.47715 46 14ZM46 14L74 17M74 17C74 11.4772 78.4772 7 84 7C89.5228 7 94 11.4772 94 17C94 22.5228 89.5228 27 84 27C82.0298 27 80.1927 26.4303 78.6445 25.4465M74 17C74 20.5527 75.8526 23.6727 78.6445 25.4465M7 32.5H17.5M82.5 38.5H93M70 35.5736L78.6445 25.4465M45 79H17.5V91H45V79ZM40 14C40 16.2091 38.2091 18 36 18C33.7909 18 32 16.2091 32 14C32 11.7909 33.7909 10 36 10C38.2091 10 40 11.7909 40 14ZM88 17C88 19.2091 86.2091 21 84 21C81.7909 21 80 19.2091 80 17C80 14.7909 81.7909 13 84 13C86.2091 13 88 14.7909 88 17ZM22 39V32.6667C22 28.9848 19.0152 26 15.3333 26H8.5C4.91015 26 2 28.9101 2 32.5C2 36.0899 4.91015 39 8.5 39H22ZM78 45V38.6667C78 34.9848 80.9848 32 84.6667 32H91.5C95.0899 32 98 34.9101 98 38.5C98 42.0899 95.0899 45 91.5 45H78Z" stroke="black" stroke-width="2"/>
</svg>
