<svg width="100" height="100" viewBox="0 0 100 100" fill="none" xmlns="http://www.w3.org/2000/svg">
<path d="M85.7209 25.4653L86.8232 26.6465C89.9346 27.9299 92 31.1283 92 34.7279V46.5C92 50.0654 90 53 84.5 53V53.5917C84.5 56.9705 82.8113 60.1258 80 62V66L83.7059 66.8235L94.0847 69.1299C96.3723 69.6383 98 71.6674 98 74.0109V98H89H60H51V73.9601C51 71.6398 52.5962 69.6244 54.8548 69.093L64.5 66.8235L68 66V62C65.1887 60.1258 63.5 56.9705 63.5 53.5917V53C59 53 57 49.0654 57 46.5V36.6563C57 26.3702 63.8105 21 73.4089 21C78.0605 21 82.4316 21.9403 85.7209 25.4653Z" fill="white"/>
<circle cx="27" cy="27" r="22" fill="white"/>
<circle cx="27" cy="27" r="21" stroke="black" stroke-width="2"/>
<path d="M27 6V14" stroke="black" stroke-width="2"/>
<path d="M27 40V48" stroke="black" stroke-width="2"/>
<path d="M6 27L14 27" stroke="black" stroke-width="2"/>
<path d="M27 19L27 27L33 27" stroke="black" stroke-width="2"/>
<path d="M40 27L48 27" stroke="black" stroke-width="2"/>
<path d="M27 64.0001C31.9706 64.0001 36 59.9706 36 55.0001C36 51.8696 34.4017 49.1124 31.9767 47.5001L39 44.4168L45.3847 36.6152L49.6274 40.8579L46.5965 44.9909C47.1247 46.023 47.5738 47.1024 47.9357 48.2209L53 49.0001V61.0001L47.9357 61.7792C47.5738 62.8977 47.1247 63.9771 46.5965 65.0092L49.6274 69.1422L41.1421 77.6275L37.009 74.5966C35.9769 75.1248 34.8976 75.5739 33.7791 75.9358L33 81.0001H21L20.2209 75.9358C19.1023 75.5739 18.023 75.1248 16.9909 74.5965L12.8578 77.6274L4.37255 69.1421L7.40346 65.0091C6.87525 63.977 6.42619 62.8977 6.06427 61.7792L1 61.0001V49.0001L6.06427 48.2209C6.42619 47.1024 6.87525 46.0231 7.40346 44.991L4.37253 40.858L8.61518 36.6153L11.5 41.5001L15 44.4168L22.0233 47.5001C19.5983 49.1124 18 51.8696 18 55.0001C18 59.9706 22.0294 64.0001 27 64.0001Z" fill="white"/>
<path d="M14.598 45.3324L20.1102 47.7523C18.1955 49.5732 17 52.1469 17 55.0001C17 60.5229 21.4772 65.0001 27 65.0001C32.5228 65.0001 37 60.5229 37 55.0001C37 52.1469 35.8046 49.5732 33.8898 47.7523L39.402 45.3324L39.6218 45.2359L39.7739 45.0501L45.4589 38.1036L48.3136 40.9583L45.7901 44.3996L45.4252 44.8972L45.7063 45.4465C46.2104 46.4316 46.639 47.4615 46.9843 48.5288L47.1741 49.1155L47.7837 49.2093L52 49.858V60.1421L47.7837 60.7908L47.1741 60.8846L46.9843 61.4713C46.639 62.5386 46.2104 63.5686 45.7063 64.5536L45.4252 65.1029L45.7901 65.6006L48.3136 69.0418L41.0416 76.3138L37.6004 73.7902L37.1028 73.4253L36.5534 73.7064C35.5684 74.2105 34.5385 74.639 33.4713 74.9844L32.8845 75.1742L32.7907 75.7837L32.1421 80.0001H21.8579L21.2093 75.7837L21.1155 75.1742L20.5287 74.9844C19.4615 74.639 18.4315 74.2105 17.4464 73.7064L16.8971 73.4252L16.3995 73.7901L12.9583 76.3137L5.6863 69.0417L8.20986 65.6005L8.57478 65.1028L8.29365 64.5535C7.78954 63.5685 7.36103 62.5386 7.01571 61.4713L6.82585 60.8846L6.21633 60.7908L2 60.1421V49.858L6.21633 49.2093L6.82585 49.1155L7.0157 48.5288C7.36103 47.4616 7.78954 46.4316 8.29365 45.4466L8.57478 44.8973L8.20986 44.3997L5.68628 40.9584L8.41011 38.2346L10.6389 42.0086L10.7269 42.1575L10.8598 42.2683L14.3598 45.185L14.4685 45.2755L14.598 45.3324Z" stroke="black" stroke-width="2"/>
<path fill-rule="evenodd" clip-rule="evenodd" d="M54 27C54 41.9117 41.9117 54 27 54C12.0883 54 0 41.9117 0 27C0 12.0883 12.0883 0 27 0C41.9117 0 54 12.0883 54 27ZM27 49C39.1503 49 49 39.1503 49 27C49 14.8497 39.1503 5 27 5C14.8497 5 5 14.8497 5 27C5 39.1503 14.8497 49 27 49Z" fill="#FEB104"/>
<path d="M86.8232 26.9724L85.7209 25.911C82.4316 22.7435 78.0605 21 73.4089 21C63.8105 21 56 28.5213 56 37.7642V47C56 43.8092 57.9615 41.2222 61.275 41.2222H69.7578C72.4744 41.2222 75.0803 40.1833 77 38.3333C78.9211 40.1833 81.5256 41.2222 84.2422 41.2222H84.5C87.8135 41.2222 92 43.8092 92 47V34.2342C92 30.9997 89.9346 28.1256 86.8232 26.9724Z" fill="#FEB104"/>
<path d="M57 46.5V36.6563C57 26.3702 63.8105 21 73.4089 21C78.0605 21 82.4316 21.9403 85.7209 25.4653L86.8232 26.6465C89.9346 27.9299 92 31.1283 92 34.7279V46.5M57 46.5C57 42.9491 60 40.5047 63.5 40.5047M57 46.5C57 49.0654 59 53 63.5 53M63.5 40.5047H69.7578C72.4744 40.5047 75.0803 39.3485 77 37.2897C78.9211 39.3485 81.5256 40.5047 84.2422 40.5047H84.5M63.5 40.5047V53M84.5 40.5047C89.5 40.5 92 42.9491 92 46.5M84.5 40.5047V53M92 46.5C92 50.0654 90 53 84.5 53M63.5 53V53.5917C63.5 56.9705 65.1887 60.1258 68 62V62M84.5 53V53.5917C84.5 56.9705 82.8113 60.1258 80 62V62M68 62V66M68 62C71 64 77 64 80 62M68 66L74 71M68 66L64.5 66.8235M80 62V66M80 66L74 71M80 66L83.7059 66.8235M51 98V73.9601C51 71.6398 52.5962 69.6244 54.8548 69.093L64.5 66.8235M51 98H60M51 98H27V93M74 71L66 76L64.5 66.8235M74 71L82 76L83.7059 66.8235M83.7059 66.8235L94.0847 69.1299C96.3723 69.6383 98 71.6674 98 74.0109V98H89M60 98V80M60 98H89M89 80V98M27 90V87M27 84V80" stroke="black" stroke-width="2"/>
</svg>
