<svg width="100" height="100" viewBox="0 0 100 100" fill="none" xmlns="http://www.w3.org/2000/svg">
<path d="M26.6666 12.5001L20.8333 11.2501V50.4167L22.5 57.9167L27.0833 66.6667L33.3333 73.3334L42.9166 79.5834L50 82.9167L57.5 79.5834L66.6667 73.3334L72.9167 66.6667L77.0833 57.9167L79.1667 50.4167V11.2501L73.75 12.5001L65.4167 12.0834L57.0833 9.16675L50 4.16675L43.75 9.16675L35 12.0834L26.6666 12.5001Z" fill="white"/>
<path d="M8.53168 48.8046V5.69092L15.0158 8.96387L21.5 12.2368V55.6351C24.5 66 35 77 50 83C70.2352 76.3972 78.5 63 79 50V12.2938L91.2346 5.69092V55.6351C89.34 65.2168 78.6476 87.665 50 97C16.123 85.3881 8.15275 59.7144 8.53168 48.8046Z" fill="#FEB104"/>
<path d="M21 12V46.7483C21 66.1963 33.983 76.1253 50.1779 83C66.2323 76.1849 79 65.9203 79 46.7483V12M34 38C31.7909 38 30 39.7909 30 42C30 44.2091 31.7909 46 34 46C36.2091 46 38 44.2091 38 42C38 39.7909 36.2091 38 34 38ZM34 38V23M45 27C42.7909 27 41 28.7909 41 31C41 33.2091 42.7909 35 45 35C47.2091 35 49 33.2091 49 31C49 28.7909 47.2091 27 45 27ZM45 27V23H34M64 37C61.7909 37 60 38.7909 60 41C60 43.2091 61.7909 45 64 45C66.2091 45 68 43.2091 68 41C68 38.7909 66.2091 37 64 37ZM64 37V31.5H79M62 57C62 59.2091 63.7909 61 66 61C68.2091 61 70 59.2091 70 57C70 54.7909 68.2091 53 66 53C63.7909 53 62 54.7909 62 57ZM62 57H43.5V67M49 67C49 69.2091 50.7909 71 53 71C55.2091 71 57 69.2091 57 67C57 64.7909 55.2091 63 53 63C50.7909 63 49 64.7909 49 67ZM49 67H43.5M34 23V12.5M43.5 67H27.5M8 4V44.5C8 61.5 13.6687 72 20.3681 79C28.5031 87.5 39.9509 92.5 50.2577 97C60.5644 92.5 71.4969 87.5 79.6319 79C86.3313 72 92 61.5 92 44.5V4C82 14 62.5 16.5 50.2577 4C37 17 18 13.5 8 4Z" stroke="black" stroke-width="2" stroke-linecap="round" stroke-linejoin="round"/>
</svg>
